# Utah Teapot Model
# Version: 2026 - Cem Yuksel
# Triangle Mesh Resolution: 3 (1250 faces)
o Utah Teapot

v -2.337037 2.233333 0
v -2.301828 2.17716 -0.2
v -2.236443 2.072839 -0.2
v -2.201234 2.016666 0
v -2.84074 2.116667 0
v -2.773205 2.075617 -0.2
v -2.647783 1.999383 -0.2
v -2.580247 1.958333 0
v -3 1.8 0
v -2.922222 1.8 -0.2
v -2.777778 1.8 -0.2
v -2.7 1.8 0
v -1.629803 2.247415 0
v -1.597604 2.190326 -0.2
v -1.697555 2.081377 -0.2
v -1.816837 2.022012 0
v -1.536884 2.314533 0
v -1.507437 2.218331 -0.2648414
v -1.605203 1.991453 -0.2653874
v -1.718703 1.893229 0
v -2.301828 2.17716 0.2
v -2.236443 2.072839 0.2
v -2.773205 2.075617 0.2
v -2.647783 1.999383 0.2
v -2.922222 1.8 0.2
v -2.777778 1.8 0.2
v -1.597604 2.190326 0.2
v -1.697555 2.081377 0.2
v -1.507437 2.218331 0.2648414
v -1.605203 1.991453 0.2653874
v -2.874074 1.363889 0
v -2.808138 1.403498 -0.2
v -2.685688 1.477057 -0.2
v -2.619753 1.516667 0
v -2.514815 0.9611111 0
v -2.484728 1.018724 -0.2
v -2.428852 1.12572 -0.2
v -2.398765 1.183333 0
v -2.129622 0.9921001 0
v -2.058923 0.8788468 -0.2
v -2.056161 0.8667687 -0.2
v -1.898123 0.6608142 -0.2
v -1.929069 0.6170738 0
v -1.969111 1.060728 0
v -1.925589 0.9199163 -0.2634191
v -1.929285 0.9 -0.263912
v -1.846655 0.6356112 -0.2659584
v -1.890801 0.551342 0
v -2.808138 1.403498 0.2
v -2.685688 1.477057 0.2
v -2.484728 1.018724 0.2
v -2.428852 1.12572 0.2
v -2.058923 0.8788468 0.2
v -2.056161 0.8667687 0.2
v -1.898123 0.6608142 0.2
v -1.925589 0.9199163 0.2634191
v -1.929285 0.9 0.263912
v -1.846655 0.6356112 0.2659584
v 2.8 2.4 0
v 2.903703 2.4 -0.1
v 3.096296 2.4 -0.1
v 3.2 2.4 0
v 2.847564 2.444882 0
v 2.989081 2.449203 -0.1158254
v 3.252793 2.456701 -0.1163194
v 3.394943 2.460574 0
v 2.795133 2.448095 0
v 2.962821 2.44962 -0.1544922
v 3.272782 2.452354 -0.1547392
v 3.439235 2.453906 0
v 2.7 2.4 0
v 2.855555 2.4 -0.1666667
v 3.144444 2.4 -0.1666667
v 3.3 2.4 0
v 2.903703 2.4 0.1
v 3.096296 2.4 0.1
v 2.989081 2.449203 0.1158254
v 3.252793 2.456701 0.1163194
v 2.962821 2.44962 0.1544922
v 3.272782 2.452354 0.1547392
v 2.855555 2.4 0.1666667
v 3.144444 2.4 0.1666667
v 2.464125 2.013017 0
v 2.547092 1.964892 -0.2297458
v 2.703721 1.875299 -0.2297458
v 2.78876 1.82684 0
v 2.270951 1.610675 0
v 2.338361 1.475347 -0.3652433
v 2.464824 1.223915 -0.3652433
v 2.533269 1.08842 0
v 1.97372 1.514015 0
v 1.913481 1.326536 -0.3567803
v 1.897989 1.293064 -0.4168141
v 1.941864 0.9435532 -0.4163594
v 1.973547 0.9159799 -0.3211451
v 2.024337 0.7901101 0
v 1.83777 1.568586 8.03315e-8
v 1.795846 1.371118 -0.4240087
v 1.783887 1.339469 -0.4913402
v 1.859118 0.9346508 -0.5009252
v 1.895291 0.9 -0.3907778
v 1.951957 0.7579522 0
v 2.547092 1.964892 0.2297458
v 2.703721 1.875299 0.2297458
v 2.338361 1.475347 0.3652433
v 2.464824 1.223915 0.3652433
v 1.913481 1.326536 0.3567803
v 1.897989 1.293064 0.4168141
v 1.941864 0.9435532 0.4163594
v 1.973547 0.9159799 0.3211451
v 1.795846 1.371118 0.4240087
v 1.783887 1.339469 0.4913402
v 1.859118 0.9346508 0.5009252
v 1.895291 0.9 0.3907778
v 0 3.15 0
v -0.3592592 3.063889 0
v -0.3111276 3.063889 -0.1796296
v -0.1796296 3.063889 -0.3111276
v 1.570372e-8 3.063889 -0.3592592
v -0.2296296 2.877778 0
v -0.1988651 2.877778 -0.1148148
v -0.1148148 2.877778 -0.1988651
v 1.003743e-8 2.877778 -0.2296296
v -0.2 2.7 0
v -0.1732051 2.7 -0.1
v -0.09999999 2.7 -0.1732051
v 8.742278e-9 2.7 -0.2
v 0.1796296 3.063889 -0.3111276
v 0.3111276 3.063889 -0.1796296
v 0.3592592 3.063889 1.570372e-8
v 0.1148148 2.877778 -0.1988651
v 0.1988651 2.877778 -0.1148148
v 0.2296296 2.877778 1.003743e-8
v 0.1 2.7 -0.1732051
v 0.1732051 2.7 -0.09999999
v 0.2 2.7 8.742278e-9
v 0 3.063889 0.3592592
v 0.1796296 3.063889 0.3111276
v 0.3111276 3.063889 0.1796296
v 0 2.877778 0.2296296
v 0.1148148 2.877778 0.1988651
v 0.1988651 2.877778 0.1148148
v 0 2.7 0.2
v 0.1 2.7 0.1732051
v 0.1732051 2.7 0.09999999
v -0.3111276 3.063889 0.1796296
v -0.1796296 3.063889 0.3111276
v -0.1988651 2.877778 0.1148148
v -0.1148148 2.877778 0.1988651
v -0.1732051 2.7 0.1
v -0.09999999 2.7 0.1732051
v -0.5814815 2.594444 0
v -0.5035777 2.594444 -0.2907408
v -0.2907407 2.594444 -0.5035777
v 2.541736e-8 2.594444 -0.5814815
v -1.062963 2.513889 0
v -0.920553 2.513889 -0.5314815
v -0.5314815 2.513889 -0.9205531
v 4.646359e-8 2.513889 -1.062963
v -1.3 2.4 0
v -1.125833 2.4 -0.65
v -0.6499999 2.4 -1.125833
v 5.68248e-8 2.4 -1.3
v 0.2907408 2.594444 -0.5035777
v 0.5035777 2.594444 -0.2907407
v 0.5814815 2.594444 2.541736e-8
v 0.5314815 2.513889 -0.920553
v 0.9205531 2.513889 -0.5314815
v 1.062963 2.513889 4.646359e-8
v 0.65 2.4 -1.125833
v 1.125833 2.4 -0.6499999
v 1.3 2.4 5.68248e-8
v 0 2.594444 0.5814815
v 0.2907408 2.594444 0.5035777
v 0.5035777 2.594444 0.2907407
v 0 2.513889 1.062963
v 0.5314815 2.513889 0.920553
v 0.9205531 2.513889 0.5314815
v 0 2.4 1.3
v 0.65 2.4 1.125833
v 1.125833 2.4 0.6499999
v -0.5035777 2.594444 0.2907408
v -0.2907407 2.594444 0.5035777
v -0.920553 2.513889 0.5314815
v -0.5314815 2.513889 0.9205531
v -1.125833 2.4 0.65
v -0.6499999 2.4 1.125833
v -1.4 2.4 0
v -1.212435 2.4 -0.7
v -0.6999999 2.4 -1.212436
v 6.119594e-8 2.4 -1.4
v -1.388381 2.488604 0
v -1.202373 2.488604 -0.6941906
v -0.6941905 2.488604 -1.202373
v 6.068806e-8 2.488604 -1.388381
v -1.440652 2.489708 0
v -1.247641 2.489708 -0.7203258
v -0.7203256 2.489708 -1.247641
v 6.297288e-8 2.489708 -1.440652
v -1.5 2.4 0
v -1.299038 2.4 -0.75
v -0.7499999 2.4 -1.299038
v 6.556708e-8 2.4 -1.5
v 0.7 2.4 -1.212435
v 1.212436 2.4 -0.6999999
v 1.4 2.4 6.119594e-8
v 0.6941906 2.488604 -1.202373
v 1.202373 2.488604 -0.6941905
v 1.388381 2.488604 6.068806e-8
v 0.7203258 2.489708 -1.247641
v 1.247641 2.489708 -0.7203256
v 1.440652 2.489708 6.297288e-8
v 0.75 2.4 -1.299038
v 1.299038 2.4 -0.7499999
v 1.5 2.4 6.556708e-8
v 0 2.4 1.4
v 0.7 2.4 1.212435
v 1.212436 2.4 0.6999999
v 0 2.488604 1.388381
v 0.6941906 2.488604 1.202373
v 1.202373 2.488604 0.6941905
v 0 2.489708 1.440652
v 0.7203258 2.489708 1.247641
v 1.247641 2.489708 0.7203256
v 0 2.4 1.5
v 0.75 2.4 1.299038
v 1.299038 2.4 0.7499999
v -1.212435 2.4 0.7
v -0.6999999 2.4 1.212436
v -1.202373 2.488604 0.6941906
v -0.6941905 2.488604 1.202373
v -1.247641 2.489708 0.7203258
v -0.7203256 2.489708 1.247641
v -1.299038 2.4 0.75
v -0.7499999 2.4 1.299038
v -1.726324 1.87557 0
v -1.49504 1.87557 -0.8631618
v -0.8631617 1.87557 -1.49504
v 7.546001e-8 1.87557 -1.726324
v -1.909458 1.371118 0
v -1.653639 1.371118 -0.9547292
v -0.9547291 1.371118 -1.653639
v 8.346508e-8 1.371118 -1.909458
v -1.732051 0.9 -1
v -0.9999999 0.9 -1.732051
v 8.742278e-8 0.9 -2
v 0.8631618 1.87557 -1.49504
v 1.49504 1.87557 -0.8631617
v 1.726324 1.87557 7.546001e-8
v 0.9547292 1.371118 -1.653639
v 1.653639 1.371118 -0.9547291
v 1 0.9 -1.732051
v 1.732051 0.9 -0.9999999
v 0 1.87557 1.726324
v 0.8631618 1.87557 1.49504
v 1.49504 1.87557 0.8631617
v 0 1.371118 1.909458
v 0.9547292 1.371118 1.653639
v 1.653639 1.371118 0.9547291
v 0 0.9 2
v 1 0.9 1.732051
v 1.732051 0.9 0.9999999
v -1.49504 1.87557 0.8631618
v -0.8631617 1.87557 1.49504
v -1.653639 1.371118 0.9547292
v -0.9547291 1.371118 1.653639
v -1.732051 0.9 1
v -0.9999999 0.9 1.732051
v -1.882716 0.5222221 0
v -1.630479 0.5222221 -0.9413579
v -0.9413577 0.5222221 -1.63048
v 8.229612e-8 0.5222221 -1.882716
v -1.635802 0.2777778 0
v -1.416646 0.2777778 -0.8179012
v -0.8179012 0.2777778 -1.416646
v 7.15032e-8 0.2777778 -1.635802
v -1.5 0.15 0
v -1.299038 0.15 -0.75
v -0.7499999 0.15 -1.299038
v 6.556708e-8 0.15 -1.5
v 0.9413579 0.5222221 -1.630479
v 1.63048 0.5222221 -0.9413577
v 1.882716 0.5222221 8.229612e-8
v 0.8179012 0.2777778 -1.416646
v 1.416646 0.2777778 -0.8179012
v 1.635802 0.2777778 7.15032e-8
v 0.75 0.15 -1.299038
v 1.299038 0.15 -0.7499999
v 1.5 0.15 6.556708e-8
v 0 0.5222221 1.882716
v 0.9413579 0.5222221 1.630479
v 1.63048 0.5222221 0.9413577
v 0 0.2777778 1.635802
v 0.8179012 0.2777778 1.416646
v 1.416646 0.2777778 0.8179012
v 0 0.15 1.5
v 0.75 0.15 1.299038
v 1.299038 0.15 0.7499999
v -1.630479 0.5222221 0.9413579
v -0.9413577 0.5222221 1.63048
v -1.416646 0.2777778 0.8179012
v -0.8179012 0.2777778 1.416646
v -1.299038 0.15 0.75
v -0.7499999 0.15 1.299038
v -1.427778 0.07777777 0
v -1.236492 0.07777777 -0.7138888
v -0.7138888 0.07777777 -1.236492
v 6.241014e-8 0.07777777 -1.427778
v -1.022222 0.02222222 0
v -0.8852704 0.02222222 -0.5111111
v -0.511111 0.02222222 -0.8852704
v 4.468275e-8 0.02222222 -1.022222
v 0 0 0
v 0.7138888 0.07777777 -1.236492
v 1.236492 0.07777777 -0.7138888
v 1.427778 0.07777777 6.241014e-8
v 0.5111111 0.02222222 -0.8852704
v 0.8852704 0.02222222 -0.511111
v 1.022222 0.02222222 4.468275e-8
v 0 0.07777777 1.427778
v 0.7138888 0.07777777 1.236492
v 1.236492 0.07777777 0.7138888
v 0 0.02222222 1.022222
v 0.5111111 0.02222222 0.8852704
v 0.8852704 0.02222222 0.511111
v -1.236492 0.07777777 0.7138888
v -0.7138888 0.07777777 1.236492
v -0.8852704 0.02222222 0.5111111
v -0.511111 0.02222222 0.8852704
v 2.311105 1.514838 0
v 2.358102 1.425978 -0.2241569
v 2.444301 1.261271 -0.22391
v 2.490464 1.172719 0
v 2.511121 1.964368 0
v 2.570537 1.935018 -0.1478695
v 2.678715 1.881148 -0.1473756
v 2.736462 1.852414 0
v 2.8 2.4 0
v 3.2 2.4 0
v 1.909074 1.365294 0
v 1.877147 1.265941 -0.1662897
v 1.849883 1.208931 -0.2549257
v 1.873148 0.9687577 -0.2546737
v 1.890808 0.9526114 -0.20621
v 1.90981 0.8543617 0
v 1.771014 1.419294 7.741347e-8
v 1.762099 1.284304 -0.2132392
v 1.747111 1.215569 -0.3230824
v 1.809045 0.926152 -0.3189374
v 1.830968 0.9 -0.2576299
v 1.851815 0.7680536 0
v 2.358102 1.425978 0.2241569
v 2.444301 1.261271 0.22391
v 2.570537 1.935018 0.1478695
v 2.678715 1.881148 0.1473756
v 2.903703 2.4 0.1
v 3.096296 2.4 0.1
v 1.877147 1.265941 0.1662897
v 1.849883 1.208931 0.2549257
v 1.873148 0.9687577 0.2546737
v 1.890808 0.9526114 0.20621
v 1.762099 1.284304 0.2132392
v 1.747111 1.215569 0.3230824
v 1.809045 0.926152 0.3189374
v 1.830968 0.9 0.2576299
v 0 0.18 0
v -0.6214746 0.1835355 0
v -0.5382128 0.1835355 -0.3107373
v -0.3107373 0.1835355 -0.5382128
v 2.716552e-8 0.1835355 -0.6214746
v -0.9762828 0.197071 0
v -0.8454856 0.197071 -0.4881414
v -0.4881414 0.197071 -0.8454857
v 4.267467e-8 0.197071 -0.9762828
v -1.2 0.225 0
v -1.03923 0.225 -0.6
v -0.6 0.225 -1.039231
v 5.245367e-8 0.225 -1.2
v 0.3107373 0.1835355 -0.5382128
v 0.5382128 0.1835355 -0.3107373
v 0.6214746 0.1835355 2.716552e-8
v 0.4881414 0.197071 -0.8454856
v 0.8454857 0.197071 -0.4881414
v 0.9762828 0.197071 4.267467e-8
v 0.6 0.225 -1.03923
v 1.039231 0.225 -0.6
v 1.2 0.225 5.245367e-8
v 0 0.1835355 0.6214746
v 0.3107373 0.1835355 0.5382128
v 0.5382128 0.1835355 0.3107373
v 0 0.197071 0.9762828
v 0.4881414 0.197071 0.8454856
v 0.8454857 0.197071 0.4881414
v 0 0.225 1.2
v 0.6 0.225 1.03923
v 1.039231 0.225 0.6
v -0.5382128 0.1835355 0.3107373
v -0.3107373 0.1835355 0.5382128
v -0.8454856 0.197071 0.4881414
v -0.4881414 0.197071 0.8454857
v -1.03923 0.225 0.6
v -0.6 0.225 1.039231
v -1.477892 0.3295957 0
v -1.279892 0.3295957 -0.738946
v -0.7389459 0.3295957 -1.279892
v 6.460071e-8 0.3295957 -1.477892
v -1.775764 0.5597979 0
v -1.537857 0.5597979 -0.8878821
v -0.8878821 0.5597979 -1.537857
v 7.762112e-8 0.5597979 -1.775764
v -1.9 0.9 0
v -1.645448 0.9 -0.95
v -0.9499999 0.9 -1.645448
v 8.305164e-8 0.9 -1.9
v 0.738946 0.3295957 -1.279892
v 1.279892 0.3295957 -0.7389459
v 1.477892 0.3295957 6.460071e-8
v 0.8878821 0.5597979 -1.537857
v 1.537857 0.5597979 -0.8878821
v 1.775764 0.5597979 7.762112e-8
v 0.95 0.9 -1.645448
v 1.645448 0.9 -0.9499999
v 0 0.3295957 1.477892
v 0.738946 0.3295957 1.279892
v 1.279892 0.3295957 0.7389459
v 0 0.5597979 1.775764
v 0.8878821 0.5597979 1.537857
v 1.537857 0.5597979 0.8878821
v 0 0.9 1.9
v 0.95 0.9 1.645448
v 1.645448 0.9 0.9499999
v -1.279892 0.3295957 0.738946
v -0.7389459 0.3295957 1.279892
v -1.537857 0.5597979 0.8878821
v -0.8878821 0.5597979 1.537857
v -1.645448 0.9 0.95
v -0.9499999 0.9 1.645448
v -1.819236 1.284304 0
v -1.575504 1.284304 -0.909618
v -0.909618 1.284304 -1.575505
v 7.952131e-8 1.284304 -1.819236
v -1.667664 1.708608 0
v -1.444239 1.708608 -0.8338321
v -0.8338321 1.708608 -1.444239
v 7.289591e-8 1.708608 -1.667664
v -1.5 2.16 0
v -1.299038 2.16 -0.75
v -0.7499999 2.16 -1.299038
v 6.556708e-8 2.16 -1.5
v 0.909618 1.284304 -1.575504
v 1.575505 1.284304 -0.909618
v 0.8338321 1.708608 -1.444239
v 1.444239 1.708608 -0.8338321
v 1.667664 1.708608 7.289591e-8
v 0.75 2.16 -1.299038
v 1.299038 2.16 -0.7499999
v 1.5 2.16 6.556708e-8
v 0 1.284304 1.819236
v 0.909618 1.284304 1.575504
v 1.575505 1.284304 0.909618
v 0 1.708608 1.667664
v 0.8338321 1.708608 1.444239
v 1.444239 1.708608 0.8338321
v 0 2.16 1.5
v 0.75 2.16 1.299038
v 1.299038 2.16 0.7499999
v -1.575504 1.284304 0.909618
v -0.909618 1.284304 1.575505
v -1.444239 1.708608 0.8338321
v -0.8338321 1.708608 1.444239
v -1.299038 2.16 0.75
v -0.7499999 2.16 1.299038
v -1.402605 2.278059 0
v -1.214692 2.278059 -0.7013025
v -0.7013025 2.278059 -1.214692
v 6.130981e-8 2.278059 -1.402605
v -1.263525 2.30903 0
v -1.094245 2.30903 -0.6317625
v -0.6317623 2.309029 -1.094245
v 5.523042e-8 2.30903 -1.263525
v -1.2 2.34 0
v -1.03923 2.34 -0.6
v -0.6 2.34 -1.039231
v 5.245367e-8 2.34 -1.2
v 0.7013025 2.278059 -1.214692
v 1.214692 2.278059 -0.7013025
v 1.402605 2.278059 6.130981e-8
v 0.6317625 2.30903 -1.094245
v 1.094245 2.309029 -0.6317623
v 1.263525 2.30903 5.523042e-8
v 0.6 2.34 -1.03923
v 1.039231 2.34 -0.6
v 1.2 2.34 5.245367e-8
v 0 2.278059 1.402605
v 0.7013025 2.278059 1.214692
v 1.214692 2.278059 0.7013025
v 0 2.30903 1.263525
v 0.6317625 2.30903 1.094245
v 1.094245 2.309029 0.6317623
v 0 2.34 1.2
v 0.6 2.34 1.03923
v 1.039231 2.34 0.6
v -1.214692 2.278059 0.7013025
v -0.7013025 2.278059 1.214692
v -1.094245 2.30903 0.6317625
v -0.6317623 2.309029 1.094245
v -1.03923 2.34 0.6
v -0.6 2.34 1.039231
v -1.235555 2.382222 0
v -1.070022 2.382222 -0.6177777
v -0.6177777 2.382222 -1.070022
v 5.400784e-8 2.382222 -1.235555
v -1.306667 2.397778 0
v -1.131607 2.397778 -0.6533333
v -0.6533333 2.397778 -1.131607
v 5.711621e-8 2.397778 -1.306667
v 0.6177777 2.382222 -1.070022
v 1.070022 2.382222 -0.6177777
v 1.235555 2.382222 5.400784e-8
v 0.6533333 2.397778 -1.131607
v 1.131607 2.397778 -0.6533333
v 1.306667 2.397778 5.711621e-8
v 0 2.382222 1.235555
v 0.6177777 2.382222 1.070022
v 1.070022 2.382222 0.6177777
v 0 2.397778 1.306667
v 0.6533333 2.397778 1.131607
v 1.131607 2.397778 0.6533333
v -1.070022 2.382222 0.6177777
v -0.6177777 2.382222 1.070022
v -1.131607 2.397778 0.6533333
v -0.6533333 2.397778 1.131607
v -1.205555 2.380555 0
v -1.044042 2.380555 -0.6027777
v -0.6027776 2.380555 -1.044042
v 5.26965e-8 2.380555 -1.205555
v -1.177778 2.344444 0
v -1.019985 2.344444 -0.5888889
v -0.5888889 2.344444 -1.019985
v 5.148231e-8 2.344444 -1.177778
v -1.15 2.325 0
v -0.9959292 2.325 -0.575
v -0.5749999 2.325 -0.9959292
v 5.02681e-8 2.325 -1.15
v 0.6027777 2.380555 -1.044042
v 1.044042 2.380555 -0.6027776
v 1.205555 2.380555 5.26965e-8
v 0.5888889 2.344444 -1.019985
v 1.019985 2.344444 -0.5888889
v 1.177778 2.344444 5.148231e-8
v 0.575 2.325 -0.9959292
v 0.9959292 2.325 -0.5749999
v 1.15 2.325 5.02681e-8
v 0 2.380555 1.205555
v 0.6027777 2.380555 1.044042
v 1.044042 2.380555 0.6027776
v 0 2.344444 1.177778
v 0.5888889 2.344444 1.019985
v 1.019985 2.344444 0.5888889
v 0 2.325 1.15
v 0.575 2.325 0.9959292
v 0.9959292 2.325 0.5749999
v -1.044042 2.380555 0.6027777
v -0.6027776 2.380555 1.044042
v -1.019985 2.344444 0.5888889
v -0.5888889 2.344444 1.019985
v -0.9959292 2.325 0.575
v -0.5749999 2.325 0.9959292
v -1.120987 2.34787 0
v -0.9708037 2.34787 -0.5604937
v -0.5604937 2.34787 -0.9708037
v 4.899992e-8 2.34787 -1.120987
v -1.080864 2.394074 0
v -0.9360559 2.394074 -0.5404321
v -0.5404321 2.394074 -0.9360559
v 4.724608e-8 2.394074 -1.080864
v -0.95 2.43 0
v -0.8227241 2.43 -0.475
v -0.475 2.43 -0.8227242
v 4.152582e-8 2.43 -0.95
v 0.5604937 2.34787 -0.9708037
v 0.9708037 2.34787 -0.5604937
v 1.120987 2.34787 4.899992e-8
v 0.5404321 2.394074 -0.9360559
v 0.9360559 2.394074 -0.5404321
v 1.080864 2.394074 4.724608e-8
v 0.475 2.43 -0.8227241
v 0.8227242 2.43 -0.475
v 0.95 2.43 4.152582e-8
v 0 2.34787 1.120987
v 0.5604937 2.34787 0.9708037
v 0.9708037 2.34787 0.5604937
v 0 2.394074 1.080864
v 0.5404321 2.394074 0.9360559
v 0.9360559 2.394074 0.5404321
v 0 2.43 0.95
v 0.475 2.43 0.8227241
v 0.8227242 2.43 0.475
v -0.9708037 2.34787 0.5604937
v -0.5604937 2.34787 0.9708037
v -0.9360559 2.394074 0.5404321
v -0.5404321 2.394074 0.9360559
v -0.8227241 2.43 0.475
v -0.475 2.43 0.8227242
v -0.7135801 2.462037 0
v -0.6179785 2.462037 -0.3567901
v -0.35679 2.462037 -0.6179786
v 3.119158e-8 2.462037 -0.7135801
v -0.4012345 2.501018 0
v -0.3474793 2.501018 -0.2006173
v -0.2006173 2.501018 -0.3474793
v 1.753852e-8 2.501018 -0.4012345
v 0 2.52 0
v 0.3567901 2.462037 -0.6179785
v 0.6179786 2.462037 -0.35679
v 0.7135801 2.462037 3.119158e-8
v 0.2006173 2.501018 -0.3474793
v 0.3474793 2.501018 -0.2006173
v 0.4012345 2.501018 1.753852e-8
v 0 2.462037 0.7135801
v 0.3567901 2.462037 0.6179785
v 0.6179786 2.462037 0.35679
v 0 2.501018 0.4012345
v 0.2006173 2.501018 0.3474793
v 0.3474793 2.501018 0.2006173
v -0.6179785 2.462037 0.3567901
v -0.35679 2.462037 0.6179786
v -0.3474793 2.501018 0.2006173
v -0.2006173 2.501018 0.3474793

vn -0.0984208 0.9951449 0
vn -0.05511727 0.597127 -0.8002509
vn 0.04628173 -0.6000502 -0.7986225
vn 0.06668281 -0.9977742 0
vn -0.628947 0.7774482 0
vn -0.3405413 0.4535853 -0.823585
vn 0.3041583 -0.4911098 -0.8162712
vn 0.4696852 -0.882834 0
vn -1 0 0
vn -0.6 -3.804552e-8 -0.8
vn 0.6000001 0 -0.7999998
vn 1 0.000001324547 0
vn -0.01527224 0.9998834 0
vn -0.005092381 0.5998112 -0.8001254
vn 0.008629422 -0.6001071 -0.7998732
vn 0.02406349 -0.9997104 0
vn -0.9446308 0.328135 0
vn -0.9319111 0.327563 -0.1557055
vn -0.9399879 0.3050074 -0.1529488
vn -0.9578272 0.2873449 0
vn -0.05511727 0.597127 0.8002509
vn 0.04628173 -0.6000502 0.7986225
vn -0.3405413 0.4535853 0.823585
vn 0.3041583 -0.4911098 0.8162712
vn -0.6 -3.804552e-8 0.8
vn 0.6000001 0 0.7999998
vn -0.005092381 0.5998112 0.8001254
vn 0.008629422 -0.6001071 0.7998732
vn -0.9319111 0.327563 0.1557055
vn -0.9399879 0.3050074 0.1529488
vn -0.917887 -0.396842 0
vn -0.5420998 -0.2242667 -0.8098347
vn 0.5539438 0.2060965 -0.8066415
vn 0.9454015 0.3259078 0
vn -0.7278901 -0.6856937 0
vn -0.4665273 -0.4131268 -0.7820988
vn 0.5062851 0.3884683 -0.7699142
vn 0.8210956 0.5707906 0
vn 0.6263857 0.7795133 0
vn 0.3953988 0.4717665 -0.7880965
vn 0.3507506 0.4140404 -0.8399671
vn -0.339529 -0.507363 -0.7920246
vn -0.5498571 -0.8352588 0
vn -0.996915 0.07848796 0
vn -0.9906875 0.009741239 -0.1358064
vn -0.9907731 1.640677e-7 -0.1355309
vn -0.930309 -0.3414839 -0.1338426
vn -0.9013852 -0.4330181 0
vn -0.5420998 -0.2242667 0.8098347
vn 0.5539438 0.2060965 0.8066415
vn -0.4665273 -0.4131268 0.7820988
vn 0.5062851 0.3884683 0.7699142
vn 0.3953988 0.4717665 0.7880965
vn 0.3507506 0.4140404 0.8399671
vn -0.339529 -0.507363 0.7920246
vn -0.9906875 0.009741239 0.1358064
vn -0.9907731 1.640677e-7 0.1355309
vn -0.930309 -0.3414839 0.1338426
vn 0.7071068 -0.7071068 0
vn 0.2568863 -0.3158439 0.9133739
vn -0.249881 0.3849518 0.8884658
vn -0.5144946 0.8574936 0
vn 0.9633807 0.2681374 0
vn 0.1328626 0.703469 0.6981968
vn -0.1306012 0.9294494 0.3450611
vn -0.1876439 0.9822371 0
vn -0.2990098 0.95425 0
vn -0.1522816 0.8738719 -0.4616905
vn 0.2162648 0.4298461 -0.8766195
vn 0.6131511 -0.7899656 0
vn -0.7071068 0.7071068 0
vn -0.2796589 0.3477499 -0.8949084
vn 0.2684081 -0.4361634 -0.8589055
vn 0.4856419 -0.8741579 0
vn 0.2568863 -0.3158439 -0.9133739
vn -0.249881 0.3849518 -0.8884658
vn 0.1328626 0.703469 -0.6981968
vn -0.1306012 0.9294494 -0.3450611
vn -0.1522816 0.8738719 0.4616905
vn 0.2162648 0.4298461 0.8766195
vn -0.2796589 0.3477499 0.8949084
vn 0.2684081 -0.4361634 0.8589055
vn -0.9704286 0.2413885 0
vn -0.4672924 0.264827 -0.8435072
vn 0.6023738 -0.04621039 -0.7968754
vn 0.968155 -0.2503514 0
vn -0.8175167 0.5759048 0
vn -0.321586 0.3878839 -0.8637872
vn 0.6479933 -0.1897449 -0.7376323
vn 0.9147211 -0.4040855 0
vn -0.4414226 0.8972993 0
vn -0.1834907 0.5148338 -0.837423
vn -0.122261 0.4070725 -0.9051763
vn 0.2659371 -0.356025 -0.8958369
vn 0.380789 -0.5110347 -0.7706123
vn 0.5399551 -0.8416938 0
vn 0.967967 0.2510774 4.231048e-8
vn 0.9457 0.2362101 -0.2232849
vn 0.9405198 0.2211987 -0.2578637
vn 0.9654387 0.01747235 -0.2600439
vn 0.9793987 -1.036826e-8 -0.2019359
vn 0.9836382 -0.180155 0
vn -0.4672924 0.264827 0.8435072
vn 0.6023738 -0.04621039 0.7968754
vn -0.321586 0.3878839 0.8637872
vn 0.6479933 -0.1897449 0.7376323
vn -0.1834907 0.5148338 0.837423
vn -0.122261 0.4070725 0.9051763
vn 0.2659371 -0.356025 0.8958369
vn 0.380789 -0.5110347 0.7706123
vn 0.9457 0.2362101 0.2232849
vn 0.9405198 0.2211987 0.2578637
vn 0.9654387 0.01747235 0.2600439
vn 0.9793987 -1.036826e-8 0.2019359
vn 0 1 0
vn -0.9974588 0.07124683 0
vn -0.8638247 0.07124677 -0.4987293
vn -0.4987293 0.07124676 -0.8638247
vn 4.360031e-8 0.07124683 -0.9974588
vn -0.8338528 -0.5519869 0
vn -0.7221377 -0.551987 -0.4169264
vn -0.4169264 -0.5519869 -0.7221377
vn 3.644887e-8 -0.5519869 -0.8338528
vn -0.7071064 0.7071071 0
vn -0.6123722 0.7071071 -0.3535532
vn -0.3535532 0.7071071 -0.6123722
vn 3.090861e-8 0.7071071 -0.7071064
vn 0.4987293 0.07124677 -0.8638247
vn 0.8638247 0.07124676 -0.4987293
vn 0.9974588 0.07124683 4.360031e-8
vn 0.4169264 -0.551987 -0.7221377
vn 0.7221377 -0.5519869 -0.4169264
vn 0.8338528 -0.5519869 3.644887e-8
vn 0.3535532 0.7071071 -0.6123722
vn 0.6123722 0.7071071 -0.3535532
vn 0.7071064 0.7071071 3.090861e-8
vn 0 0.07124683 0.9974588
vn 0.4987293 0.07124677 0.8638247
vn 0.8638247 0.07124676 0.4987293
vn 0 -0.5519869 0.8338528
vn 0.4169264 -0.551987 0.7221377
vn 0.7221377 -0.5519869 0.4169264
vn 0 0.7071071 0.7071064
vn 0.3535532 0.7071071 0.6123722
vn 0.6123722 0.7071071 0.3535532
vn -0.8638247 0.07124677 0.4987293
vn -0.4987293 0.07124676 0.8638247
vn -0.7221377 -0.551987 0.4169264
vn -0.4169264 -0.5519869 0.7221377
vn -0.6123722 0.7071071 0.3535532
vn -0.3535532 0.7071071 0.6123722
vn -0.2130392 0.9770437 0
vn -0.1844974 0.9770436 -0.1065196
vn -0.1065196 0.9770437 -0.1844974
vn 9.312241e-9 0.9770437 -0.2130392
vn -0.2747212 0.9615239 0
vn -0.2379155 0.9615239 -0.1373606
vn -0.1373606 0.9615239 -0.2379156
vn 1.200844e-8 0.9615239 -0.2747212
vn -1 0 0
vn -0.8660254 -8.60318e-7 -0.5000001
vn -0.4999999 0 -0.8660254
vn 4.371139e-8 0 -1
vn 0.1065196 0.9770436 -0.1844974
vn 0.1844974 0.9770437 -0.1065196
vn 0.2130392 0.9770437 9.312241e-9
vn 0.1373606 0.9615239 -0.2379155
vn 0.2379156 0.9615239 -0.1373606
vn 0.2747212 0.9615239 1.200844e-8
vn 0.5000001 -8.60318e-7 -0.8660254
vn 0.8660254 0 -0.4999999
vn 1 0 4.371139e-8
vn 0 0.9770437 0.2130392
vn 0.1065196 0.9770436 0.1844974
vn 0.1844974 0.9770437 0.1065196
vn 0 0.9615239 0.2747212
vn 0.1373606 0.9615239 0.2379155
vn 0.2379156 0.9615239 0.1373606
vn 0 0 1
vn 0.5000001 -8.60318e-7 0.8660254
vn 0.8660254 0 0.4999999
vn -0.1844974 0.9770436 0.1065196
vn -0.1065196 0.9770437 0.1844974
vn -0.2379155 0.9615239 0.1373606
vn -0.1373606 0.9615239 0.2379156
vn -0.8660254 -8.60318e-7 0.5000001
vn -0.4999999 0 0.8660254
vn 0.9417421 -0.3363358 0
vn 0.8155726 -0.3363357 0.4708711
vn 0.4708711 -0.3363355 0.8155727
vn -4.116485e-8 -0.3363358 0.9417421
vn 0.8872711 0.4612482 0
vn 0.7683992 0.4612485 0.4436355
vn 0.4436356 0.461248 0.7683995
vn -3.878385e-8 0.4612482 0.8872711
vn -0.6991698 0.7149556 0
vn -0.6054989 0.7149557 -0.3495849
vn -0.3495848 0.7149559 -0.6054987
vn 3.056168e-8 0.7149556 -0.6991698
vn -0.9417424 0.3363349 0
vn -0.815573 0.3363347 -0.4708713
vn -0.470871 0.3363357 -0.8155726
vn 4.116486e-8 0.3363349 -0.9417424
vn -0.4708711 -0.3363357 0.8155726
vn -0.8155727 -0.3363355 0.4708711
vn -0.9417421 -0.3363358 -4.116485e-8
vn -0.4436355 0.4612485 0.7683992
vn -0.7683995 0.461248 0.4436356
vn -0.8872711 0.4612482 -3.878385e-8
vn 0.3495849 0.7149557 -0.6054989
vn 0.6054987 0.7149559 -0.3495848
vn 0.6991698 0.7149556 3.056168e-8
vn 0.4708713 0.3363347 -0.815573
vn 0.8155726 0.3363357 -0.470871
vn 0.9417424 0.3363349 4.116486e-8
vn 0 -0.3363358 -0.9417421
vn -0.4708711 -0.3363357 -0.8155726
vn -0.8155727 -0.3363355 -0.4708711
vn 0 0.4612482 -0.8872711
vn -0.4436355 0.4612485 -0.7683992
vn -0.7683995 0.461248 -0.4436356
vn 0 0.7149556 0.6991698
vn 0.3495849 0.7149557 0.6054989
vn 0.6054987 0.7149559 0.3495848
vn 0 0.3363349 0.9417424
vn 0.4708713 0.3363347 0.815573
vn 0.8155726 0.3363357 0.470871
vn 0.8155726 -0.3363357 -0.4708711
vn 0.4708711 -0.3363355 -0.8155727
vn 0.7683992 0.4612485 -0.4436355
vn 0.4436356 0.461248 -0.7683995
vn -0.6054989 0.7149557 0.3495849
vn -0.3495848 0.7149559 0.6054987
vn -0.815573 0.3363347 0.4708713
vn -0.470871 0.3363357 0.8155726
vn -0.958342 0.2856233 0
vn -0.8299485 0.2856233 -0.479171
vn -0.4791709 0.2856233 -0.8299485
vn 4.189045e-8 0.2856233 -0.958342
vn -0.9735002 0.2286861 0
vn -0.8430759 0.2286862 -0.4867501
vn -0.48675 0.2286862 -0.8430759
vn 4.255304e-8 0.2286861 -0.9735002
vn -0.8660254 0 -0.5
vn -0.4999999 0 -0.8660254
vn 4.371139e-8 0 -1
vn 0.479171 0.2856233 -0.8299485
vn 0.8299485 0.2856233 -0.4791709
vn 0.958342 0.2856233 4.189045e-8
vn 0.4867501 0.2286862 -0.8430759
vn 0.8430759 0.2286862 -0.48675
vn 0.5 0 -0.8660254
vn 0.8660254 0 -0.4999999
vn 0 0.2856233 0.958342
vn 0.479171 0.2856233 0.8299485
vn 0.8299485 0.2856233 0.4791709
vn 0 0.2286861 0.9735002
vn 0.4867501 0.2286862 0.8430759
vn 0.8430759 0.2286862 0.48675
vn 0 0 1
vn 0.5 0 0.8660254
vn 0.8660254 0 0.4999999
vn -0.8299485 0.2856233 0.479171
vn -0.4791709 0.2856233 0.8299485
vn -0.8430759 0.2286862 0.4867501
vn -0.48675 0.2286862 0.8430759
vn -0.8660254 0 0.5
vn -0.4999999 0 0.8660254
vn -0.8852063 -0.4651985 0
vn -0.7666112 -0.4651985 -0.4426032
vn -0.4426031 -0.4651985 -0.7666113
vn 3.869359e-8 -0.4651985 -0.8852063
vn -0.7215329 -0.6923802 0
vn -0.6248659 -0.6923801 -0.3607665
vn -0.3607664 -0.6923802 -0.6248658
vn 3.15392e-8 -0.6923802 -0.7215329
vn -1 0 0
vn -0.8660254 -0.000001720638 -0.5
vn -0.4999999 -4.967052e-7 -0.8660254
vn 4.371139e-8 0 -1
vn 0.4426032 -0.4651985 -0.7666112
vn 0.7666113 -0.4651985 -0.4426031
vn 0.8852063 -0.4651985 3.869359e-8
vn 0.3607665 -0.6923801 -0.6248659
vn 0.6248658 -0.6923802 -0.3607664
vn 0.7215329 -0.6923802 3.15392e-8
vn 0.5 -0.000001720638 -0.8660254
vn 0.8660254 -4.967052e-7 -0.4999999
vn 1 0 4.371139e-8
vn 0 -0.4651985 0.8852063
vn 0.4426032 -0.4651985 0.7666112
vn 0.7666113 -0.4651985 0.4426031
vn 0 -0.6923802 0.7215329
vn 0.3607665 -0.6923801 0.6248659
vn 0.6248658 -0.6923802 0.3607664
vn 0 0 1
vn 0.5 -0.000001720638 0.8660254
vn 0.8660254 -4.967052e-7 0.4999999
vn -0.7666112 -0.4651985 0.4426032
vn -0.4426031 -0.4651985 0.7666113
vn -0.6248659 -0.6923801 0.3607665
vn -0.3607664 -0.6923802 0.6248658
vn -0.8660254 -0.000001720638 0.5
vn -0.4999999 -4.967052e-7 0.8660254
vn -0.4207249 -0.9071883 0
vn -0.3643585 -0.9071883 -0.2103625
vn -0.2103625 -0.9071883 -0.3643585
vn 1.839047e-8 -0.9071883 -0.4207249
vn -0.08304548 -0.9965458 0
vn -0.07191949 -0.9965458 -0.04152274
vn -0.04152273 -0.9965458 -0.07191949
vn 3.630033e-9 -0.9965458 -0.08304548
vn 0 -1 0
vn 0.2103625 -0.9071883 -0.3643585
vn 0.3643585 -0.9071883 -0.2103625
vn 0.4207249 -0.9071883 1.839047e-8
vn 0.04152274 -0.9965458 -0.07191949
vn 0.07191949 -0.9965458 -0.04152273
vn 0.08304548 -0.9965458 3.630033e-9
vn 0 -0.9071883 0.4207249
vn 0.2103625 -0.9071883 0.3643585
vn 0.3643585 -0.9071883 0.2103625
vn 0 -0.9965458 0.08304548
vn 0.04152274 -0.9965458 0.07191949
vn 0.07191949 -0.9965458 0.04152273
vn -0.3643585 -0.9071883 0.2103625
vn -0.2103625 -0.9071883 0.3643585
vn -0.07191949 -0.9965458 0.04152274
vn -0.04152273 -0.9965458 0.07191949
vn 0.8446661 -0.5352936 0
vn 0.3863097 -0.3218287 0.8644021
vn -0.5690652 0.2123296 0.794406
vn -0.904726 0.4259941 0
vn 0.9682944 -0.249812 0
vn 0.4741146 -0.2129965 0.8543113
vn -0.5543366 0.06663045 0.8296212
vn -0.9688007 0.2478411 0
vn 0.7071065 -0.7071071 0
vn -0.5144957 0.857493 0
vn 0.4632178 -0.8862444 0
vn 0.3175829 -0.6361513 0.7031733
vn 0.1644074 -0.3613657 0.9178153
vn -0.25462 0.3272248 0.909996
vn -0.3478943 0.4652051 0.8139741
vn -0.5223806 0.8527125 0
vn -0.9687725 -0.2479512 -4.234611e-8
vn -0.9612709 -0.2498519 0.1163282
vn -0.9620453 -0.2078167 0.1768649
vn -0.9846786 -0.01725108 0.1735235
vn -0.9902454 -2.912747e-7 0.1393342
vn -0.9775212 0.2108372 0
vn 0.3863097 -0.3218287 -0.8644021
vn -0.5690652 0.2123296 -0.794406
vn 0.4741146 -0.2129965 -0.8543113
vn -0.5543366 0.06663045 -0.8296212
vn 0.2580114 -0.3030759 -0.917374
vn -0.2509515 0.3753321 -0.8922719
vn 0.3175829 -0.6361513 -0.7031733
vn 0.1644074 -0.3613657 -0.9178153
vn -0.25462 0.3272248 -0.909996
vn -0.3478943 0.4652051 -0.8139741
vn -0.9612709 -0.2498519 -0.1163282
vn -0.9620453 -0.2078167 -0.1768649
vn -0.9846786 -0.01725108 -0.1735235
vn -0.9902454 -2.912747e-7 -0.1393342
vn 0 1 0
vn 0.0250372 0.9996865 0
vn 0.02168285 0.9996865 0.0125186
vn 0.0125186 0.9996865 0.02168285
vn -1.094411e-9 0.9996865 0.0250372
vn 0.0900352 0.9959385 0
vn 0.07797277 0.9959386 0.04501761
vn 0.04501759 0.9959385 0.07797277
vn -3.935563e-9 0.9959385 0.0900352
vn 0.287348 0.9578263 0
vn 0.2488506 0.9578263 0.143674
vn 0.1436739 0.9578263 0.2488506
vn -1.256038e-8 0.9578263 0.287348
vn -0.0125186 0.9996865 0.02168285
vn -0.02168285 0.9996865 0.0125186
vn -0.0250372 0.9996865 -1.094411e-9
vn -0.04501761 0.9959386 0.07797277
vn -0.07797277 0.9959385 0.04501759
vn -0.0900352 0.9959385 -3.935563e-9
vn -0.143674 0.9578263 0.2488506
vn -0.2488506 0.9578263 0.1436739
vn -0.287348 0.9578263 -1.256038e-8
vn 0 0.9996865 -0.0250372
vn -0.0125186 0.9996865 -0.02168285
vn -0.02168285 0.9996865 -0.0125186
vn 0 0.9959385 -0.0900352
vn -0.04501761 0.9959386 -0.07797277
vn -0.07797277 0.9959385 -0.04501759
vn 0 0.9578263 -0.287348
vn -0.143674 0.9578263 -0.2488506
vn -0.2488506 0.9578263 -0.1436739
vn 0.02168285 0.9996865 -0.0125186
vn 0.0125186 0.9996865 -0.02168285
vn 0.07797277 0.9959386 -0.04501761
vn 0.04501759 0.9959385 -0.07797277
vn 0.2488506 0.9578263 -0.143674
vn 0.1436739 0.9578263 -0.2488506
vn 0.5690862 0.8222779 0
vn 0.492843 0.822278 0.284543
vn 0.284543 0.8222779 0.4928431
vn -2.487555e-8 0.8222779 0.5690862
vn 0.8516489 0.5241127 0
vn 0.7375497 0.5241126 0.4258245
vn 0.4258244 0.5241126 0.7375496
vn -3.722677e-8 0.5241127 0.8516489
vn 1 0 0
vn 0.8660253 0 0.5
vn 0.4999999 -3.308919e-7 0.8660254
vn -4.371139e-8 0 1
vn -0.284543 0.822278 0.492843
vn -0.4928431 0.8222779 0.284543
vn -0.5690862 0.8222779 -2.487555e-8
vn -0.4258245 0.5241126 0.7375497
vn -0.7375496 0.5241126 0.4258244
vn -0.8516489 0.5241127 -3.722677e-8
vn -0.5 0 0.8660253
vn -0.8660254 -3.308919e-7 0.4999999
vn 0 0.8222779 -0.5690862
vn -0.284543 0.822278 -0.492843
vn -0.4928431 0.8222779 -0.284543
vn 0 0.5241127 -0.8516489
vn -0.4258245 0.5241126 -0.7375497
vn -0.7375496 0.5241126 -0.4258244
vn 0 0 -1
vn -0.5 0 -0.8660253
vn -0.8660254 -3.308919e-7 -0.4999999
vn 0.492843 0.822278 -0.284543
vn 0.284543 0.8222779 -0.4928431
vn 0.7375497 0.5241126 -0.4258245
vn 0.4258244 0.5241126 -0.7375496
vn 0.8660253 0 -0.5
vn 0.4999999 -3.308919e-7 -0.8660254
vn 0.9697409 -0.2441364 0
vn 0.8398201 -0.2441367 0.4848705
vn 0.4848702 -0.244137 0.8398201
vn -4.238872e-8 -0.2441364 0.9697409
vn 0.9666463 -0.2561148 0
vn 0.8371403 -0.2561148 0.4833232
vn 0.4833231 -0.2561148 0.8371404
vn -4.225345e-8 -0.2561148 0.9666463
vn 0.9486832 -0.3162279 0
vn 0.8215837 -0.3162281 0.4743417
vn 0.4743416 -0.3162277 0.8215839
vn -4.146826e-8 -0.3162279 0.9486832
vn -0.4848705 -0.2441367 0.8398201
vn -0.8398201 -0.244137 0.4848702
vn -0.4833232 -0.2561148 0.8371403
vn -0.8371404 -0.2561148 0.4833231
vn -0.9666463 -0.2561148 -4.225345e-8
vn -0.4743417 -0.3162281 0.8215837
vn -0.8215839 -0.3162277 0.4743416
vn -0.9486832 -0.3162279 -4.146826e-8
vn 0 -0.2441364 -0.9697409
vn -0.4848705 -0.2441367 -0.8398201
vn -0.8398201 -0.244137 -0.4848702
vn 0 -0.2561148 -0.9666463
vn -0.4833232 -0.2561148 -0.8371403
vn -0.8371404 -0.2561148 -0.4833231
vn 0 -0.3162279 -0.9486832
vn -0.4743417 -0.3162281 -0.8215837
vn -0.8215839 -0.3162277 -0.4743416
vn 0.8398201 -0.2441367 -0.4848705
vn 0.4848702 -0.244137 -0.8398201
vn 0.8371403 -0.2561148 -0.4833232
vn 0.4833231 -0.2561148 -0.8371404
vn 0.8215837 -0.3162281 -0.4743417
vn 0.4743416 -0.3162277 -0.8215839
vn 0.5393888 -0.8420568 0
vn 0.4671244 -0.8420568 0.2696944
vn 0.2696943 -0.842057 0.4671243
vn -2.357743e-8 -0.8420568 0.5393888
vn 0.163866 -0.9864826 0
vn 0.1419121 -0.9864826 0.08193298
vn 0.08193336 -0.9864825 0.1419128
vn -7.162812e-9 -0.9864826 0.163866
vn 1 0 0
vn 0.8660254 0 0.5000001
vn 0.4999999 0 0.8660254
vn -4.371139e-8 0 1
vn -0.2696944 -0.8420568 0.4671244
vn -0.4671243 -0.842057 0.2696943
vn -0.5393888 -0.8420568 -2.357743e-8
vn -0.08193298 -0.9864826 0.1419121
vn -0.1419128 -0.9864825 0.08193336
vn -0.163866 -0.9864826 -7.162812e-9
vn -0.5000001 0 0.8660254
vn -0.8660254 0 0.4999999
vn -1 0 -4.371139e-8
vn 0 -0.8420568 -0.5393888
vn -0.2696944 -0.8420568 -0.4671244
vn -0.4671243 -0.842057 -0.2696943
vn 0 -0.9864826 -0.163866
vn -0.08193298 -0.9864826 -0.1419121
vn -0.1419128 -0.9864825 -0.08193336
vn 0 0 -1
vn -0.5000001 0 -0.8660254
vn -0.8660254 0 -0.4999999
vn 0.4671244 -0.8420568 -0.2696944
vn 0.2696943 -0.842057 -0.4671243
vn 0.1419121 -0.9864826 -0.08193298
vn 0.08193336 -0.9864825 -0.1419128
vn 0.8660254 0 -0.5000001
vn 0.4999999 0 -0.8660254
vn 0.5192593 0.8546168 0
vn 0.4496917 0.8546168 0.2596296
vn 0.2596296 0.8546167 0.4496918
vn -2.269755e-8 0.8546168 0.5192593
vn 0.1065344 0.994309 0
vn 0.09226149 0.994309 0.0532672
vn 0.05326721 0.994309 0.09226152
vn -4.656767e-9 0.994309 0.1065344
vn -0.000003973647 1 0
vn -0.000003441282 1 -0.000001986825
vn -0.000001986821 1 -0.000003441276
vn 1.736936e-13 1 -0.000003973647
vn -0.2596296 0.8546168 0.4496917
vn -0.4496918 0.8546167 0.2596296
vn -0.5192593 0.8546168 -2.269755e-8
vn -0.0532672 0.994309 0.09226149
vn -0.09226152 0.994309 0.05326721
vn -0.1065344 0.994309 -4.656767e-9
vn 0.000001986825 1 -0.000003441282
vn 0.000003441276 1 -0.000001986821
vn 0.000003973647 1 1.736936e-13
vn 0 0.8546168 -0.5192593
vn -0.2596296 0.8546168 -0.4496917
vn -0.4496918 0.8546167 -0.2596296
vn 0 0.994309 -0.1065344
vn -0.0532672 0.994309 -0.09226149
vn -0.09226152 0.994309 -0.05326721
vn 0 1 0.000003973647
vn 0.000001986825 1 0.000003441282
vn 0.000003441276 1 0.000001986821
vn 0.4496917 0.8546168 -0.2596296
vn 0.2596296 0.8546167 -0.4496918
vn 0.09226149 0.994309 -0.0532672
vn 0.05326721 0.994309 -0.09226152
vn -0.000003441282 1 0.000001986825
vn -0.000001986821 1 0.000003441276
vn 0.000002649098 -1 0
vn 0.000002294185 -1 0.000001324548
vn 0.000001324548 -1 0.000002294184
vn -1.157957e-13 -1 0.000002649098
vn -0.6643642 -0.747409 0
vn -0.5753571 -0.7474082 -0.3321825
vn -0.332182 -0.7474091 -0.5753562
vn 2.904028e-8 -0.747409 -0.6643642
vn -0.9363295 -0.3511226 0
vn -0.8108851 -0.3511227 -0.4681647
vn -0.4681649 -0.3511218 -0.8108854
vn 4.092826e-8 -0.3511226 -0.9363295
vn 0 -1 0
vn 0 -1 0
vn 0 -1 0
vn 0 -1 0
vn -0.000001324548 -1 0.000002294185
vn -0.000002294184 -1 0.000001324548
vn -0.000002649098 -1 -1.157957e-13
vn 0.3321825 -0.7474082 -0.5753571
vn 0.5753562 -0.7474091 -0.332182
vn 0.6643642 -0.747409 2.904028e-8
vn 0.4681647 -0.3511227 -0.8108851
vn 0.8108854 -0.3511218 -0.4681649
vn 0.9363295 -0.3511226 4.092826e-8
vn 0 -1 0
vn 0 -1 0
vn 0 -1 0
vn 0 -1 -0.000002649098
vn -0.000001324548 -1 -0.000002294185
vn -0.000002294184 -1 -0.000001324548
vn 0 -0.747409 0.6643642
vn 0.3321825 -0.7474082 0.5753571
vn 0.5753562 -0.7474091 0.332182
vn 0 -0.3511226 0.9363295
vn 0.4681647 -0.3511227 0.8108851
vn 0.8108854 -0.3511218 0.4681649
vn 0 -1 0
vn 0 -1 0
vn 0 -1 0
vn 0.000002294185 -1 -0.000001324548
vn 0.000001324548 -1 -0.000002294184
vn -0.5753571 -0.7474082 0.3321825
vn -0.332182 -0.7474091 0.5753562
vn -0.8108851 -0.3511227 0.4681647
vn -0.4681649 -0.3511218 0.8108854
vn 0 -1 0
vn 0 -1 0
vn 0.9344217 -0.3561688 0
vn 0.8092331 -0.356168 0.4672109
vn 0.4672108 -0.3561687 0.809233
vn -4.084487e-8 -0.3561688 0.9344217
vn 0.630295 -0.7763557 0
vn 0.5458515 -0.7763557 0.3151475
vn 0.3151475 -0.7763557 0.5458515
vn -2.755107e-8 -0.7763557 0.630295
vn 0.1961157 -0.9805808 0
vn 0.1698411 -0.9805808 0.09805778
vn 0.09805781 -0.9805808 0.1698411
vn -8.572488e-9 -0.9805808 0.1961157
vn -0.4672109 -0.356168 0.8092331
vn -0.809233 -0.3561687 0.4672108
vn -0.9344217 -0.3561688 -4.084487e-8
vn -0.3151475 -0.7763557 0.5458515
vn -0.5458515 -0.7763557 0.3151475
vn -0.630295 -0.7763557 -2.755107e-8
vn -0.09805778 -0.9805808 0.1698411
vn -0.1698411 -0.9805808 0.09805781
vn -0.1961157 -0.9805808 -8.572488e-9
vn 0 -0.3561688 -0.9344217
vn -0.4672109 -0.356168 -0.8092331
vn -0.809233 -0.3561687 -0.4672108
vn 0 -0.7763557 -0.630295
vn -0.3151475 -0.7763557 -0.5458515
vn -0.5458515 -0.7763557 -0.3151475
vn 0 -0.9805808 -0.1961157
vn -0.09805778 -0.9805808 -0.1698411
vn -0.1698411 -0.9805808 -0.09805781
vn 0.8092331 -0.356168 -0.4672109
vn 0.4672108 -0.3561687 -0.809233
vn 0.5458515 -0.7763557 -0.3151475
vn 0.3151475 -0.7763557 -0.5458515
vn 0.1698411 -0.9805808 -0.09805778
vn 0.09805781 -0.9805808 -0.1698411
vn 0.1811172 -0.9834615 0
vn 0.1568521 -0.9834615 0.09055861
vn 0.09055861 -0.9834615 0.1568521
vn -7.916885e-9 -0.9834615 0.1811172
vn 0.1292211 -0.9916159 0
vn 0.1119087 -0.9916159 0.06461054
vn 0.06461054 -0.9916159 0.1119087
vn -5.648434e-9 -0.9916159 0.1292211
vn -8.830318e-7 -1 0
vn -0.09055861 -0.9834615 0.1568521
vn -0.1568521 -0.9834615 0.09055861
vn -0.1811172 -0.9834615 -7.916885e-9
vn -0.06461054 -0.9916159 0.1119087
vn -0.1119087 -0.9916159 0.06461054
vn -0.1292211 -0.9916159 -5.648434e-9
vn 0 -0.9834615 -0.1811172
vn -0.09055861 -0.9834615 -0.1568521
vn -0.1568521 -0.9834615 -0.09055861
vn 0 -0.9916159 -0.1292211
vn -0.06461054 -0.9916159 -0.1119087
vn -0.1119087 -0.9916159 -0.06461054
vn 0.1568521 -0.9834615 -0.09055861
vn 0.09055861 -0.9834615 -0.1568521
vn 0.1119087 -0.9916159 -0.06461054
vn 0.06461054 -0.9916159 -0.1119087

vt 0.125 0.6990741
vt 0.1640625 0.6984484
vt 0.203125 0.6969056
vt 0.2421875 0.6957672
vt 0.125 0.6600529
vt 0.1640625 0.659177
vt 0.203125 0.6570171
vt 0.2421875 0.6554233
vt 0.125 0.625
vt 0.1640625 0.625
vt 0.203125 0.625
vt 0.2421875 0.625
vt 0.125 0.7421027
vt 0.1640625 0.7452376
vt 0.203125 0.7401019
vt 0.2421875 0.7304405
vt 0.125 0.7481856
vt 0.1640625 0.7513205
vt 0.203125 0.7461848
vt 0.2421875 0.7365234
vt 0.0859375 0.6984484
vt 0.046875 0.6969056
vt 0.0078125 0.6957672
vt 0.0859375 0.659177
vt 0.046875 0.6570171
vt 0.0078125 0.6554233
vt 0.0859375 0.625
vt 0.046875 0.625
vt 0.0078125 0.625
vt 0.0859375 0.7452376
vt 0.046875 0.7401019
vt 0.0078125 0.7304405
vt 0.0859375 0.7513205
vt 0.046875 0.7461848
vt 0.0078125 0.7365234
vt 0.125 0.5909087
vt 0.1640625 0.5916342
vt 0.203125 0.5933627
vt 0.2421875 0.594573
vt 0.125 0.5528503
vt 0.1640625 0.553037
vt 0.203125 0.5534213
vt 0.2421875 0.5536535
vt 0.2421875 0.5233463
vt 0.203125 0.5269945
vt 0.1997397 0.5267366
vt 0.1640625 0.5158446
vt 0.125 0.5155034
vt 0.2421875 0.5162948
vt 0.203125 0.5199429
vt 0.1997397 0.5196851
vt 0.1640625 0.5087931
vt 0.125 0.5084519
vt 0.0859375 0.5916342
vt 0.046875 0.5933627
vt 0.0078125 0.594573
vt 0.0859375 0.553037
vt 0.046875 0.5534213
vt 0.0078125 0.5536535
vt 0.0078125 0.5233463
vt 0.046875 0.5269945
vt 0.05026026 0.5267366
vt 0.0859375 0.5158446
vt 0.0078125 0.5162948
vt 0.046875 0.5199429
vt 0.05026026 0.5196851
vt 0.0859375 0.5087931
vt 0.75 0.75
vt 0.7916667 0.75
vt 0.8333333 0.75
vt 0.875 0.75
vt 0.75 0.7371994
vt 0.7916667 0.7366766
vt 0.8333333 0.7361007
vt 0.875 0.7359558
vt 0.75 0.7253006
vt 0.7916667 0.7253
vt 0.8333333 0.7252444
vt 0.875 0.7251845
vt 0.75 0.7125
vt 0.7916667 0.7125
vt 0.8333333 0.7125
vt 0.875 0.7125
vt 1 0.75
vt 0.9583333 0.75
vt 0.9166667 0.75
vt 1 0.7371994
vt 0.9583333 0.7366766
vt 0.9166667 0.7361007
vt 1 0.7253006
vt 0.9583333 0.7253
vt 0.9166667 0.7252444
vt 1 0.7125
vt 0.9583333 0.7125
vt 0.9166667 0.7125
vt 0.75 0.6547451
vt 0.7916667 0.6539723
vt 0.8333333 0.6528042
vt 0.875 0.6523086
vt 0.75 0.5833989
vt 0.7916667 0.5818783
vt 0.8333333 0.5804038
vt 0.875 0.5799507
vt 0.75 0.5434393
vt 0.7857203 0.5324492
vt 0.7916667 0.5299757
vt 0.8333333 0.5299671
vt 0.8428618 0.5322863
vt 0.875 0.5351754
vt 0.75 0.5274535
vt 0.7857203 0.5164635
vt 0.7916667 0.51399
vt 0.8333333 0.5139813
vt 0.8428618 0.5163006
vt 0.875 0.5191897
vt 1 0.6547451
vt 0.9583333 0.6539723
vt 0.9166667 0.6528042
vt 1 0.5833989
vt 0.9583333 0.5818783
vt 0.9166667 0.5804038
vt 1 0.5434393
vt 0.9642797 0.5324492
vt 0.9583333 0.5299757
vt 0.9166667 0.5299671
vt 0.9071382 0.5322863
vt 1 0.5274535
vt 0.9642797 0.5164635
vt 0.9583333 0.51399
vt 0.9166667 0.5139813
vt 0.9071382 0.5163006
vt 0.375 0.625
vt 0.375 0.5772704
vt 0.3988648 0.583665
vt 0.416335 0.6011353
vt 0.4227296 0.625
vt 0.375 0.5351084
vt 0.4199458 0.5471516
vt 0.4528484 0.5800542
vt 0.4648916 0.625
vt 0.375 0.5078125
vt 0.4335938 0.5235127
vt 0.4764874 0.5664063
vt 0.4921875 0.625
vt 0.416335 0.6488648
vt 0.3988648 0.666335
vt 0.375 0.6727296
vt 0.4528484 0.6699458
vt 0.4199458 0.7028484
vt 0.375 0.7148916
vt 0.4764873 0.6835938
vt 0.4335938 0.7264873
vt 0.375 0.7421875
vt 0.3272704 0.625
vt 0.333665 0.6488648
vt 0.3511352 0.666335
vt 0.2851084 0.625
vt 0.2971516 0.6699458
vt 0.3300542 0.7028484
vt 0.2578125 0.625
vt 0.2735127 0.6835938
vt 0.3164063 0.7264873
vt 0.3511352 0.583665
vt 0.333665 0.6011353
vt 0.3300542 0.5471516
vt 0.2971516 0.5800542
vt 0.3164063 0.5235127
vt 0.2735126 0.5664063
vt 0.625 0.6069711
vt 0.6340144 0.6093866
vt 0.6406134 0.6159856
vt 0.6430289 0.625
vt 0.625 0.5754362
vt 0.6497819 0.5820765
vt 0.6679235 0.6002182
vt 0.6745638 0.625
vt 0.625 0.5353872
vt 0.6698064 0.547393
vt 0.702607 0.5801936
vt 0.7146128 0.625
vt 0.625 0.5078125
vt 0.6835938 0.5235127
vt 0.7264873 0.5664063
vt 0.7421875 0.625
vt 0.6406134 0.6340144
vt 0.6340144 0.6406134
vt 0.625 0.6430289
vt 0.6679235 0.6497819
vt 0.6497819 0.6679235
vt 0.625 0.6745638
vt 0.702607 0.6698064
vt 0.6698064 0.702607
vt 0.625 0.7146128
vt 0.7264873 0.6835938
vt 0.6835938 0.7264873
vt 0.625 0.7421875
vt 0.6069711 0.625
vt 0.6093866 0.6340144
vt 0.6159856 0.6406134
vt 0.5754362 0.625
vt 0.5820765 0.6497819
vt 0.6002181 0.6679235
vt 0.5353872 0.625
vt 0.547393 0.6698064
vt 0.5801936 0.702607
vt 0.5078125 0.625
vt 0.5235127 0.6835938
vt 0.5664063 0.7264873
vt 0.6159856 0.6093866
vt 0.6093866 0.6159856
vt 0.6002181 0.5820765
vt 0.5820765 0.6002182
vt 0.5801936 0.547393
vt 0.547393 0.5801936
vt 0.5664063 0.5235127
vt 0.5235127 0.5664063
vt 0 0.25
vt 0.08333334 0.25
vt 0.1666667 0.25
vt 0.25 0.25
vt 0 0.2395957
vt 0.08333334 0.2395957
vt 0.1666667 0.2395957
vt 0.25 0.2395957
vt 0 0.2304044
vt 0.08333334 0.2304044
vt 0.1666667 0.2304044
vt 0.25 0.2304044
vt 0 0.22
vt 0.08333334 0.22
vt 0.1666667 0.22
vt 0.25 0.22
vt 0.3333333 0.25
vt 0.4166667 0.25
vt 0.5 0.25
vt 0.3333333 0.2395957
vt 0.4166667 0.2395957
vt 0.5 0.2395957
vt 0.3333333 0.2304044
vt 0.4166667 0.2304044
vt 0.5 0.2304044
vt 0.3333333 0.22
vt 0.4166667 0.22
vt 0.5 0.22
vt 0.75 0.25
vt 0.6666666 0.25
vt 0.5833333 0.25
vt 0.75 0.2395957
vt 0.6666666 0.2395957
vt 0.5833333 0.2395957
vt 0.75 0.2304044
vt 0.6666666 0.2304044
vt 0.5833333 0.2304044
vt 0.75 0.22
vt 0.6666666 0.22
vt 0.5833333 0.22
vt 1 0.25
vt 0.9166667 0.25
vt 0.8333333 0.25
vt 1 0.2395957
vt 0.9166667 0.2395957
vt 0.8333333 0.2395957
vt 1 0.2304044
vt 0.9166667 0.2304044
vt 0.8333333 0.2304044
vt 1 0.22
vt 0.9166667 0.22
vt 0.8333333 0.22
vt 0 0.1722529
vt 0.08333334 0.1722529
vt 0.1666667 0.1722529
vt 0.25 0.1722529
vt 0 0.1265661
vt 0.08333334 0.1265661
vt 0.1666667 0.1265661
vt 0.25 0.1265661
vt 0.08333334 0.08499998
vt 0.1666667 0.08499998
vt 0.25 0.08499998
vt 0 0.2122186
vt 0.02646947 0.2034599
vt 0.02592609 0.1828036
vt 0 0.1738607
vt 0 0.09918079
vt 0.0219516 0.08675717
vt 0.02199267 0.08499998
vt 0.3333333 0.1722529
vt 0.4166667 0.1722529
vt 0.5 0.1722529
vt 0.3333333 0.1265661
vt 0.4166667 0.1265661
vt 0.3333333 0.08499998
vt 0.4166667 0.08499998
vt 0.5 0.1444502
vt 0.4629905 0.1265661
vt 0.4573789 0.1237737
vt 0.4581241 0.08805716
vt 0.4674352 0.08499998
vt 0.75 0.1722529
vt 0.6666666 0.1722529
vt 0.5833333 0.1722529
vt 0.75 0.1265661
vt 0.6666666 0.1265661
vt 0.5833333 0.1265661
vt 0.75 0.08499998
vt 0.6666666 0.08499998
vt 0.5833333 0.08499998
vt 0.5370095 0.1265661
vt 0.5426211 0.1237737
vt 0.5418759 0.08805716
vt 0.5325648 0.08499998
vt 1 0.1722529
vt 0.9166667 0.1722529
vt 0.8333333 0.1722529
vt 1 0.1265661
vt 0.9166667 0.1265661
vt 0.8333333 0.1265661
vt 0.9166667 0.08499998
vt 0.8333333 0.08499998
vt 1 0.2122186
vt 0.9735305 0.2034599
vt 0.9740739 0.1828036
vt 1 0.1738607
vt 1 0.09918079
vt 0.9780484 0.08675717
vt 0.9780073 0.08499998
vt 0 0.0467695
vt 0.08333334 0.0467695
vt 0.1666667 0.0467695
vt 0.25 0.0467695
vt 0 0.01614851
vt 0.08333334 0.01614851
vt 0.1666667 0.01614851
vt 0.25 0.01614851
vt 0 0
vt 0.08333334 0
vt 0.1666667 0
vt 0.25 0
vt 0.02313265 0.05824428
vt 0 0.04971638
vt 0.3333333 0.0467695
vt 0.4166667 0.0467695
vt 0.5 0.0467695
vt 0.3333333 0.01614851
vt 0.4166667 0.01614851
vt 0.5 0.01614851
vt 0.3333333 0
vt 0.4166667 0
vt 0.5 0
vt 0.5 0.07062498
vt 0.75 0.0467695
vt 0.6666666 0.0467695
vt 0.5833333 0.0467695
vt 0.75 0.01614851
vt 0.6666666 0.01614851
vt 0.5833333 0.01614851
vt 0.75 0
vt 0.6666666 0
vt 0.5833333 0
vt 1 0.0467695
vt 0.9166667 0.0467695
vt 0.8333333 0.0467695
vt 1 0.01614851
vt 0.9166667 0.01614851
vt 0.8333333 0.01614851
vt 1 0
vt 0.9166667 0
vt 0.8333333 0
vt 0.9768674 0.05824428
vt 1 0.04971638
vt 0.125 0.9921875
vt 0.1835938 0.9764873
vt 0.2264874 0.9335938
vt 0.2421875 0.875
vt 0.125 0.9811395
vt 0.1780698 0.9669195
vt 0.2169195 0.9280697
vt 0.2311395 0.875
vt 0.125 0.9487847
vt 0.1618924 0.9388995
vt 0.1888995 0.9118924
vt 0.1987847 0.875
vt 0.125 0.875
vt 0.2264874 0.8164063
vt 0.1835937 0.7735127
vt 0.125 0.7578125
vt 0.2169195 0.8219302
vt 0.1780698 0.7830805
vt 0.125 0.7688605
vt 0.1888994 0.8381076
vt 0.1618924 0.8111005
vt 0.125 0.8012153
vt 0.0078125 0.875
vt 0.02351265 0.8164063
vt 0.06640626 0.7735127
vt 0.01886047 0.875
vt 0.03308047 0.8219302
vt 0.07193024 0.7830805
vt 0.05121528 0.875
vt 0.06110056 0.8381076
vt 0.08810765 0.8111005
vt 0.06640625 0.9764873
vt 0.02351263 0.9335938
vt 0.07193023 0.9669195
vt 0.03308046 0.9280697
vt 0.08810763 0.9388995
vt 0.06110054 0.9118924
vt 0.75 0.9085969
vt 0.7916667 0.9092873
vt 0.8333333 0.9102026
vt 0.875 0.9105729
vt 0.75 0.8227233
vt 0.7916667 0.8226182
vt 0.8333333 0.8227319
vt 0.875 0.8228685
vt 0.875 0.75
vt 0.75 0.9584299
vt 0.7772465 0.9634833
vt 0.7916667 0.9673421
vt 0.8333333 0.9673084
vt 0.8412623 0.96587
vt 0.875 0.9650013
vt 0.75 0.9700476
vt 0.7772465 0.975101
vt 0.7916667 0.9789598
vt 0.8333333 0.9789261
vt 0.8412623 0.9774876
vt 0.875 0.9766189
vt 1 0.9085969
vt 0.9583333 0.9092873
vt 0.9166667 0.9102026
vt 1 0.8227233
vt 0.9583333 0.8226182
vt 0.9166667 0.8227319
vt 1 0.75
vt 0.9583333 0.75
vt 0.9166667 0.75
vt 1 0.9584299
vt 0.9727535 0.9634833
vt 0.9583333 0.9673421
vt 0.9166667 0.9673084
vt 0.9087377 0.96587
vt 1 0.9700476
vt 0.9727535 0.975101
vt 0.9583333 0.9789598
vt 0.9166667 0.9789261
vt 0.9087377 0.9774876
vt 0.375 0.875
vt 0.375 0.8146472
vt 0.4051764 0.8227329
vt 0.4272671 0.8448236
vt 0.4353528 0.875
vt 0.375 0.7799566
vt 0.4225217 0.7926899
vt 0.4573101 0.8274783
vt 0.4700435 0.875
vt 0.375 0.7578125
vt 0.4335938 0.7735127
vt 0.4764874 0.8164063
vt 0.4921875 0.875
vt 0.4272671 0.9051764
vt 0.4051764 0.9272671
vt 0.375 0.9353529
vt 0.4573101 0.9225217
vt 0.4225217 0.95731
vt 0.375 0.9700434
vt 0.4764873 0.9335938
vt 0.4335938 0.9764873
vt 0.375 0.9921875
vt 0.3146472 0.875
vt 0.3227329 0.9051764
vt 0.3448236 0.9272671
vt 0.2799565 0.875
vt 0.2926899 0.9225217
vt 0.3274783 0.95731
vt 0.2578125 0.875
vt 0.2735127 0.9335938
vt 0.3164063 0.9764873
vt 0.3448236 0.8227329
vt 0.3227329 0.8448236
vt 0.3274783 0.7926899
vt 0.2926899 0.8274783
vt 0.3164063 0.7735127
vt 0.2735126 0.8164063
vt 0 0.5
vt 0.08333334 0.5
vt 0.1666667 0.5
vt 0.25 0.5
vt 0 0.4785237
vt 0.08333334 0.4785237
vt 0.1666667 0.4785237
vt 0.25 0.4785237
vt 0 0.4466703
vt 0.08333334 0.4466703
vt 0.1666667 0.4466703
vt 0.25 0.4466703
vt 0 0.411275
vt 0.08333334 0.411275
vt 0.1666667 0.411275
vt 0.25 0.411275
vt 0.3333333 0.5
vt 0.4166667 0.5
vt 0.5 0.5
vt 0.3333333 0.4785237
vt 0.4166667 0.4785237
vt 0.5 0.4785237
vt 0.3333333 0.4466703
vt 0.4166667 0.4466703
vt 0.5 0.4466703
vt 0.3333333 0.411275
vt 0.4166667 0.411275
vt 0.4774009 0.411275
vt 0.5 0.425003
vt 0.75 0.5
vt 0.6666666 0.5
vt 0.5833333 0.5
vt 0.75 0.4785237
vt 0.6666666 0.4785237
vt 0.5833333 0.4785237
vt 0.75 0.4466703
vt 0.6666666 0.4466703
vt 0.5833333 0.4466703
vt 0.75 0.411275
vt 0.6666666 0.411275
vt 0.5833333 0.411275
vt 0.5225991 0.411275
vt 1 0.5
vt 0.9166667 0.5
vt 0.8333333 0.5
vt 1 0.4785237
vt 0.9166667 0.4785237
vt 0.8333333 0.4785237
vt 1 0.4466703
vt 0.9166667 0.4466703
vt 0.8333333 0.4466703
vt 1 0.411275
vt 0.9166667 0.411275
vt 0.8333333 0.411275
vt 0 0.3800415
vt 0.08333334 0.3800415
vt 0.1666667 0.3800415
vt 0.25 0.3800415
vt 0 0.3447782
vt 0.08333334 0.3447782
vt 0.1666667 0.3447782
vt 0.25 0.3447782
vt 0 0.3075
vt 0.08333334 0.3075
vt 0.1666667 0.3075
vt 0.25 0.3075
vt 0.3333333 0.3800415
vt 0.4166667 0.3800415
vt 0.3333333 0.3447782
vt 0.4166667 0.3447782
vt 0.5 0.3447782
vt 0.3333333 0.3075
vt 0.4166667 0.3075
vt 0.5 0.3075
vt 0.5 0.3688226
vt 0.4804644 0.3800415
vt 0.4709775 0.3856278
vt 0.4719665 0.4091496
vt 0.75 0.3800415
vt 0.6666666 0.3800415
vt 0.5833333 0.3800415
vt 0.75 0.3447782
vt 0.6666666 0.3447782
vt 0.5833333 0.3447782
vt 0.75 0.3075
vt 0.6666666 0.3075
vt 0.5833333 0.3075
vt 0.5195356 0.3800415
vt 0.5290225 0.3856278
vt 0.5280335 0.4091496
vt 1 0.3800415
vt 0.9166667 0.3800415
vt 0.8333333 0.3800415
vt 1 0.3447782
vt 0.9166667 0.3447782
vt 0.8333333 0.3447782
vt 1 0.3075
vt 0.9166667 0.3075
vt 0.8333333 0.3075
vt 0 0.2915501
vt 0.08333334 0.2915501
vt 0.1666667 0.2915501
vt 0.25 0.2915501
vt 0 0.2784141
vt 0.08333334 0.2784141
vt 0.1666667 0.2784141
vt 0.25 0.2784141
vt 0 0.270075
vt 0.08333334 0.270075
vt 0.1666667 0.270075
vt 0.25 0.270075
vt 0.3333333 0.2915501
vt 0.4166667 0.2915501
vt 0.5 0.2915501
vt 0.3333333 0.2784141
vt 0.4166667 0.2784141
vt 0.5 0.2784141
vt 0.3333333 0.270075
vt 0.4166667 0.270075
vt 0.5 0.270075
vt 0.75 0.2915501
vt 0.6666666 0.2915501
vt 0.5833333 0.2915501
vt 0.75 0.2784141
vt 0.6666666 0.2784141
vt 0.5833333 0.2784141
vt 0.75 0.270075
vt 0.6666666 0.270075
vt 0.5833333 0.270075
vt 1 0.2915501
vt 0.9166667 0.2915501
vt 0.8333333 0.2915501
vt 1 0.2784141
vt 0.9166667 0.2784141
vt 0.8333333 0.2784141
vt 1 0.270075
vt 0.9166667 0.270075
vt 0.8333333 0.270075
vt 0 0.2639144
vt 0.08333334 0.2639144
vt 0.1666667 0.2639144
vt 0.25 0.2639144
vt 0 0.2571165
vt 0.08333334 0.2571165
vt 0.1666667 0.2571165
vt 0.25 0.2571165
vt 0.3333333 0.2639144
vt 0.4166667 0.2639144
vt 0.5 0.2639144
vt 0.3333333 0.2571165
vt 0.4166667 0.2571165
vt 0.5 0.2571165
vt 0.75 0.2639144
vt 0.6666666 0.2639144
vt 0.5833333 0.2639144
vt 0.75 0.2571165
vt 0.6666666 0.2571165
vt 0.5833333 0.2571165
vt 1 0.2639144
vt 0.9166667 0.2639144
vt 0.8333333 0.2639144
vt 1 0.2571165
vt 0.9166667 0.2571165
vt 0.8333333 0.2571165
vt 0.625 0.9921875
vt 0.6835938 0.9764873
vt 0.7264873 0.9335938
vt 0.7421875 0.875
vt 0.625 0.9828373
vt 0.6789187 0.9683899
vt 0.7183899 0.9289187
vt 0.7328373 0.875
vt 0.625 0.9755925
vt 0.6752962 0.9621156
vt 0.7121156 0.9252962
vt 0.7255925 0.875
vt 0.625 0.9708125
vt 0.6729063 0.957976
vt 0.707976 0.9229062
vt 0.7208125 0.875
vt 0.7264873 0.8164063
vt 0.6835938 0.7735127
vt 0.625 0.7578125
vt 0.7183899 0.8210813
vt 0.6789187 0.7816101
vt 0.625 0.7671627
vt 0.7121156 0.8247038
vt 0.6752962 0.7878844
vt 0.625 0.7744075
vt 0.707976 0.8270937
vt 0.6729062 0.792024
vt 0.625 0.7791875
vt 0.5078125 0.875
vt 0.5235127 0.8164063
vt 0.5664063 0.7735127
vt 0.5171627 0.875
vt 0.5316101 0.8210813
vt 0.5710813 0.7816101
vt 0.5244075 0.875
vt 0.5378844 0.8247038
vt 0.5747038 0.7878844
vt 0.5291875 0.875
vt 0.542024 0.8270937
vt 0.5770938 0.792024
vt 0.5664063 0.9764873
vt 0.5235127 0.9335938
vt 0.5710813 0.9683899
vt 0.5316101 0.9289187
vt 0.5747038 0.9621156
vt 0.5378844 0.9252962
vt 0.5770937 0.957976
vt 0.542024 0.9229062
vt 0.625 0.9658672
vt 0.6704336 0.9536933
vt 0.7036933 0.9204336
vt 0.7158672 0.875
vt 0.625 0.957616
vt 0.666308 0.9465475
vt 0.6965475 0.9163079
vt 0.707616 0.875
vt 0.625 0.9455938
vt 0.6602969 0.936136
vt 0.686136 0.9102969
vt 0.6955938 0.875
vt 0.7036933 0.8295664
vt 0.6704336 0.7963067
vt 0.625 0.7841328
vt 0.6965475 0.833692
vt 0.666308 0.8034525
vt 0.625 0.792384
vt 0.686136 0.8397031
vt 0.6602969 0.813864
vt 0.625 0.8044063
vt 0.5341328 0.875
vt 0.5463067 0.8295664
vt 0.5795664 0.7963067
vt 0.542384 0.875
vt 0.5534525 0.833692
vt 0.583692 0.8034525
vt 0.5544062 0.875
vt 0.563864 0.8397031
vt 0.5897031 0.813864
vt 0.5795664 0.9536933
vt 0.5463067 0.9204336
vt 0.583692 0.9465475
vt 0.5534525 0.9163079
vt 0.5897031 0.936136
vt 0.563864 0.9102969
vt 0.625 0.9279761
vt 0.6514881 0.9208786
vt 0.6708786 0.9014881
vt 0.6779761 0.875
vt 0.625 0.9046237
vt 0.6398119 0.9006549
vt 0.6506549 0.8898119
vt 0.6546237 0.875
vt 0.625 0.875
vt 0.6708786 0.8485119
vt 0.6514881 0.8291214
vt 0.625 0.8220239
vt 0.6506549 0.8601881
vt 0.6398119 0.8493451
vt 0.625 0.8453763
vt 0.5720239 0.875
vt 0.5791214 0.8485119
vt 0.5985119 0.8291214
vt 0.5953763 0.875
vt 0.5993451 0.8601881
vt 0.6101881 0.8493451
vt 0.5985119 0.9208786
vt 0.5791214 0.9014881
vt 0.6101881 0.9006549
vt 0.5993451 0.8898119

f 2/2/2 6/6/6 5/5/5 1/1/1
f 3/3/3 7/7/7 6/6/6 2/2/2
f 4/4/4 8/8/8 7/7/7 3/3/3
f 6/6/6 10/10/10 9/9/9 5/5/5
f 7/7/7 11/11/11 10/10/10 6/6/6
f 8/8/8 12/12/12 11/11/11 7/7/7
f 13/13/13 14/14/14 2/2/2
f 13/13/13 2/2/2 1/1/1
f 15/15/15 2/2/2 14/14/14
f 15/15/15 3/3/3 2/2/2
f 16/16/16 3/3/3 15/15/15
f 16/16/16 4/4/4 3/3/3
f 13/13/13 17/17/17 18/18/18 14/14/14
f 14/14/14 18/18/18 19/19/19 15/15/15
f 15/15/15 19/19/19 20/20/20 16/16/16
f 5/5/5 23/24/23 21/21/21 1/1/1
f 23/24/23 24/25/24 22/22/22 21/21/21
f 24/25/24 8/26/8 4/23/4 22/22/22
f 9/9/9 25/27/25 23/24/23 5/5/5
f 25/27/25 26/28/26 24/25/24 23/24/23
f 26/28/26 12/29/12 8/26/8 24/25/24
f 21/21/21 27/30/27 13/13/13
f 1/1/1 21/21/21 13/13/13
f 27/30/27 21/21/21 28/31/28
f 21/21/21 22/22/22 28/31/28
f 28/31/28 22/22/22 16/32/16
f 22/22/22 4/23/4 16/32/16
f 29/33/29 17/17/17 13/13/13 27/30/27
f 30/34/30 29/33/29 27/30/27 28/31/28
f 20/35/20 30/34/30 28/31/28 16/32/16
f 10/10/10 32/37/32 31/36/31 9/9/9
f 11/11/11 33/38/33 32/37/32 10/10/10
f 12/12/12 34/39/34 33/38/33 11/11/11
f 32/37/32 36/41/36 35/40/35 31/36/31
f 33/38/33 37/42/37 36/41/36 32/37/32
f 34/39/34 38/43/38 37/42/37 33/38/33
f 39/44/39 40/45/40 37/42/37
f 39/44/39 37/42/37 38/43/38
f 41/46/41 37/42/37 40/45/40
f 41/46/41 36/41/36 37/42/37
f 41/46/41 42/47/42 36/41/36
f 42/47/42 43/48/43 35/40/35
f 42/47/42 35/40/35 36/41/36
f 39/44/39 44/49/44 45/50/45 40/45/40
f 40/45/40 45/50/45 46/51/46 41/46/41
f 41/46/41 46/51/46 47/52/47 42/47/42
f 42/47/42 47/52/47 48/53/48 43/48/43
f 31/36/31 49/54/49 25/27/25 9/9/9
f 49/54/49 50/55/50 26/28/26 25/27/25
f 50/55/50 34/56/34 12/29/12 26/28/26
f 35/40/35 51/57/51 49/54/49 31/36/31
f 51/57/51 52/58/52 50/55/50 49/54/49
f 52/58/52 38/59/38 34/56/34 50/55/50
f 52/58/52 53/61/53 39/60/39
f 38/59/38 52/58/52 39/60/39
f 53/61/53 52/58/52 54/62/54
f 52/58/52 51/57/51 54/62/54
f 51/57/51 55/63/55 54/62/54
f 35/40/35 43/48/43 55/63/55
f 51/57/51 35/40/35 55/63/55
f 56/65/56 44/64/44 39/60/39 53/61/53
f 57/66/57 56/65/56 53/61/53 54/62/54
f 58/67/58 57/66/57 54/62/54 55/63/55
f 48/53/48 58/67/58 55/63/55 43/48/43
f 60/69/60 64/73/64 63/72/63 59/68/59
f 61/70/61 65/74/65 64/73/64 60/69/60
f 62/71/62 66/75/66 65/74/65 61/70/61
f 64/73/64 68/77/68 67/76/67 63/72/63
f 65/74/65 69/78/69 68/77/68 64/73/64
f 66/75/66 70/79/70 69/78/69 65/74/65
f 68/77/68 72/81/72 71/80/71 67/76/67
f 69/78/69 73/82/73 72/81/72 68/77/68
f 70/79/70 74/83/74 73/82/73 69/78/69
f 63/87/63 77/88/77 75/85/75 59/84/59
f 77/88/77 78/89/78 76/86/76 75/85/75
f 78/89/78 66/75/66 62/71/62 76/86/76
f 67/90/67 79/91/79 77/88/77 63/87/63
f 79/91/79 80/92/80 78/89/78 77/88/77
f 80/92/80 70/79/70 66/75/66 78/89/78
f 71/93/71 81/94/81 79/91/79 67/90/67
f 81/94/81 82/95/82 80/92/80 79/91/79
f 82/95/82 74/83/74 70/79/70 80/92/80
f 72/81/72 84/97/84 83/96/83 71/80/71
f 73/82/73 85/98/85 84/97/84 72/81/72
f 74/83/74 86/99/86 85/98/85 73/82/73
f 84/97/84 88/101/88 87/100/87 83/96/83
f 85/98/85 89/102/89 88/101/88 84/97/84
f 86/99/86 90/103/90 89/102/89 85/98/85
f 91/104/91 88/101/88 92/105/92
f 91/104/91 87/100/87 88/101/88
f 92/105/92 88/101/88 93/106/93
f 93/106/93 89/102/89 94/107/94
f 93/106/93 88/101/88 89/102/89
f 95/108/95 94/107/94 89/102/89
f 95/108/95 89/102/89 90/103/90
f 96/109/96 95/108/95 90/103/90
f 92/105/92 98/111/98 97/110/97 91/104/91
f 93/106/93 99/112/99 98/111/98 92/105/92
f 94/107/94 100/113/100 99/112/99 93/106/93
f 95/108/95 101/114/101 100/113/100 94/107/94
f 96/109/96 102/115/102 101/114/101 95/108/95
f 83/116/83 103/117/103 81/94/81 71/93/71
f 103/117/103 104/118/104 82/95/82 81/94/81
f 104/118/104 86/99/86 74/83/74 82/95/82
f 87/119/87 105/120/105 103/117/103 83/116/83
f 105/120/105 106/121/106 104/118/104 103/117/103
f 106/121/106 90/103/90 86/99/86 104/118/104
f 107/123/107 105/120/105 91/122/91
f 105/120/105 87/119/87 91/122/91
f 108/124/108 105/120/105 107/123/107
f 109/125/109 106/121/106 108/124/108
f 106/121/106 105/120/105 108/124/108
f 106/121/106 109/125/109 110/126/110
f 90/103/90 106/121/106 110/126/110
f 90/103/90 110/126/110 96/109/96
f 97/127/97 111/128/111 107/123/107 91/122/91
f 111/128/111 112/129/112 108/124/108 107/123/107
f 112/129/112 113/130/113 109/125/109 108/124/108
f 113/130/113 114/131/114 110/126/110 109/125/109
f 114/131/114 102/115/102 96/109/96 110/126/110
f 115/132/115 117/134/117 116/133/116
f 115/132/115 118/135/118 117/134/117
f 115/132/115 119/136/119 118/135/118
f 117/134/117 121/138/121 120/137/120 116/133/116
f 118/135/118 122/139/122 121/138/121 117/134/117
f 119/136/119 123/140/123 122/139/122 118/135/118
f 121/138/121 125/142/125 124/141/124 120/137/120
f 122/139/122 126/143/126 125/142/125 121/138/121
f 123/140/123 127/144/127 126/143/126 122/139/122
f 115/132/115 128/145/128 119/136/119
f 115/132/115 129/146/129 128/145/128
f 115/132/115 130/147/130 129/146/129
f 128/145/128 131/148/131 123/140/123 119/136/119
f 129/146/129 132/149/132 131/148/131 128/145/128
f 130/147/130 133/150/133 132/149/132 129/146/129
f 131/148/131 134/151/134 127/144/127 123/140/123
f 132/149/132 135/152/135 134/151/134 131/148/131
f 133/150/133 136/153/136 135/152/135 132/149/132
f 137/154/137 138/155/138 115/132/115
f 138/155/138 139/156/139 115/132/115
f 139/156/139 130/147/130 115/132/115
f 140/157/140 141/158/141 138/155/138 137/154/137
f 141/158/141 142/159/142 139/156/139 138/155/138
f 142/159/142 133/150/133 130/147/130 139/156/139
f 143/160/143 144/161/144 141/158/141 140/157/140
f 144/161/144 145/162/145 142/159/142 141/158/141
f 145/162/145 136/153/136 133/150/133 142/159/142
f 116/133/116 146/163/146 115/132/115
f 146/163/146 147/164/147 115/132/115
f 147/164/147 137/154/137 115/132/115
f 120/137/120 148/165/148 146/163/146 116/133/116
f 148/165/148 149/166/149 147/164/147 146/163/146
f 149/166/149 140/157/140 137/154/137 147/164/147
f 124/141/124 150/167/150 148/165/148 120/137/120
f 150/167/150 151/168/151 149/166/149 148/165/148
f 151/168/151 143/160/143 140/157/140 149/166/149
f 125/170/125 153/174/153 152/173/152 124/169/124
f 126/171/126 154/175/154 153/174/153 125/170/125
f 127/172/127 155/176/155 154/175/154 126/171/126
f 153/174/153 157/178/157 156/177/156 152/173/152
f 154/175/154 158/179/158 157/178/157 153/174/153
f 155/176/155 159/180/159 158/179/158 154/175/154
f 157/178/157 161/182/161 160/181/160 156/177/156
f 158/179/158 162/183/162 161/182/161 157/178/157
f 159/180/159 163/184/163 162/183/162 158/179/158
f 134/185/134 164/188/164 155/176/155 127/172/127
f 135/186/135 165/189/165 164/188/164 134/185/134
f 136/187/136 166/190/166 165/189/165 135/186/135
f 164/188/164 167/191/167 159/180/159 155/176/155
f 165/189/165 168/192/168 167/191/167 164/188/164
f 166/190/166 169/193/169 168/192/168 165/189/165
f 167/191/167 170/194/170 163/184/163 159/180/159
f 168/192/168 171/195/171 170/194/170 167/191/167
f 169/193/169 172/196/172 171/195/171 168/192/168
f 173/200/173 174/201/174 144/198/144 143/197/143
f 174/201/174 175/202/175 145/199/145 144/198/144
f 175/202/175 166/190/166 136/187/136 145/199/145
f 176/203/176 177/204/177 174/201/174 173/200/173
f 177/204/177 178/205/178 175/202/175 174/201/174
f 178/205/178 169/193/169 166/190/166 175/202/175
f 179/206/179 180/207/180 177/204/177 176/203/176
f 180/207/180 181/208/181 178/205/178 177/204/177
f 181/208/181 172/196/172 169/193/169 178/205/178
f 152/173/152 182/211/182 150/209/150 124/169/124
f 182/211/182 183/212/183 151/210/151 150/209/150
f 183/212/183 173/200/173 143/197/143 151/210/151
f 156/177/156 184/213/184 182/211/182 152/173/152
f 184/213/184 185/214/185 183/212/183 182/211/182
f 185/214/185 176/203/176 173/200/173 183/212/183
f 160/181/160 186/215/186 184/213/184 156/177/156
f 186/215/186 187/216/187 185/214/185 184/213/184
f 187/216/187 179/206/179 176/203/176 185/214/185
f 189/218/189 193/222/193 192/221/192 188/217/188
f 190/219/190 194/223/194 193/222/193 189/218/189
f 191/220/191 195/224/195 194/223/194 190/219/190
f 193/222/193 197/226/197 196/225/196 192/221/192
f 194/223/194 198/227/198 197/226/197 193/222/193
f 195/224/195 199/228/199 198/227/198 194/223/194
f 197/226/197 201/230/201 200/229/200 196/225/196
f 198/227/198 202/231/202 201/230/201 197/226/197
f 199/228/199 203/232/203 202/231/202 198/227/198
f 204/233/204 207/236/207 195/224/195 191/220/191
f 205/234/205 208/237/208 207/236/207 204/233/204
f 206/235/206 209/238/209 208/237/208 205/234/205
f 207/236/207 210/239/210 199/228/199 195/224/195
f 208/237/208 211/240/211 210/239/210 207/236/207
f 209/238/209 212/241/212 211/240/211 208/237/208
f 210/239/210 213/242/213 203/232/203 199/228/199
f 211/240/211 214/243/214 213/242/213 210/239/210
f 212/241/212 215/244/215 214/243/214 211/240/211
f 219/248/219 220/249/220 217/246/217 216/245/216
f 220/249/220 221/250/221 218/247/218 217/246/217
f 221/250/221 209/238/209 206/235/206 218/247/218
f 222/251/222 223/252/223 220/249/220 219/248/219
f 223/252/223 224/253/224 221/250/221 220/249/220
f 224/253/224 212/241/212 209/238/209 221/250/221
f 225/254/225 226/255/226 223/252/223 222/251/222
f 226/255/226 227/256/227 224/253/224 223/252/223
f 227/256/227 215/244/215 212/241/212 224/253/224
f 192/260/192 230/261/230 228/258/228 188/257/188
f 230/261/230 231/262/231 229/259/229 228/258/228
f 231/262/231 219/248/219 216/245/216 229/259/229
f 196/263/196 232/264/232 230/261/230 192/260/192
f 232/264/232 233/265/233 231/262/231 230/261/230
f 233/265/233 222/251/222 219/248/219 231/262/231
f 200/266/200 234/267/234 232/264/232 196/263/196
f 234/267/234 235/268/235 233/265/233 232/264/232
f 235/268/235 225/254/225 222/251/222 233/265/233
f 202/231/202 238/271/238 237/270/237 201/230/201
f 203/232/203 239/272/239 238/271/238 202/231/202
f 237/270/237 241/274/241 240/273/240 236/269/236
f 238/271/238 242/275/242 241/274/241 237/270/237
f 239/272/239 243/276/243 242/275/242 238/271/238
f 242/275/242 245/278/245 244/277/244 241/274/241
f 243/276/243 246/279/246 245/278/245 242/275/242
f 18/281/18 17/280/17 200/229/200
f 18/281/18 200/229/200 201/230/201
f 18/281/18 237/270/237 19/282/19
f 18/281/18 201/230/201 237/270/237
f 20/283/20 19/282/19 237/270/237
f 20/283/20 237/270/237 236/269/236
f 45/285/45 44/284/44 240/273/240
f 45/285/45 240/273/240 241/274/241
f 45/285/45 241/274/241 244/277/244
f 45/285/45 244/277/244 46/286/46
f 213/242/213 247/287/247 239/272/239 203/232/203
f 214/243/214 248/288/248 247/287/247 213/242/213
f 215/244/215 249/289/249 248/288/248 214/243/214
f 247/287/247 250/290/250 243/276/243 239/272/239
f 248/288/248 251/291/251 250/290/250 247/287/247
f 250/290/250 252/292/252 246/279/246 243/276/243
f 251/291/251 253/293/253 252/292/252 250/290/250
f 98/295/98 249/289/249 97/294/97
f 98/295/98 248/288/248 249/289/249
f 98/295/98 251/291/251 248/288/248
f 99/296/99 251/291/251 98/295/98
f 99/296/99 100/297/100 253/293/253
f 99/296/99 253/293/253 251/291/251
f 100/297/100 101/298/101 253/293/253
f 254/299/254 255/300/255 226/255/226 225/254/225
f 255/300/255 256/301/256 227/256/227 226/255/226
f 256/301/256 249/289/249 215/244/215 227/256/227
f 257/302/257 258/303/258 255/300/255 254/299/254
f 258/303/258 259/304/259 256/301/256 255/300/255
f 260/305/260 261/306/261 258/303/258 257/302/257
f 261/306/261 262/307/262 259/304/259 258/303/258
f 97/294/97 249/289/249 111/308/111
f 249/289/249 256/301/256 111/308/111
f 256/301/256 259/304/259 111/308/111
f 111/308/111 259/304/259 112/309/112
f 262/307/262 113/310/113 112/309/112
f 259/304/259 262/307/262 112/309/112
f 262/307/262 114/311/114 113/310/113
f 263/313/263 264/314/264 235/268/235 234/267/234
f 264/314/264 254/299/254 225/254/225 235/268/235
f 240/315/240 265/316/265 263/313/263 236/312/236
f 265/316/265 266/317/266 264/314/264 263/313/263
f 266/317/266 257/302/257 254/299/254 264/314/264
f 267/318/267 268/319/268 266/317/266 265/316/265
f 268/319/268 260/305/260 257/302/257 266/317/266
f 200/266/200 17/320/17 29/321/29
f 234/267/234 200/266/200 29/321/29
f 30/322/30 263/313/263 29/321/29
f 263/313/263 234/267/234 29/321/29
f 263/313/263 30/322/30 20/323/20
f 236/312/236 263/313/263 20/323/20
f 240/315/240 44/324/44 56/325/56
f 265/316/265 240/315/240 56/325/56
f 267/318/267 265/316/265 56/325/56
f 57/326/57 267/318/267 56/325/56
f 245/278/245 271/329/271 270/328/270 244/277/244
f 246/279/246 272/330/272 271/329/271 245/278/245
f 270/328/270 274/332/274 273/331/273 269/327/269
f 271/329/271 275/333/275 274/332/274 270/328/270
f 272/330/272 276/334/276 275/333/275 271/329/271
f 274/332/274 278/336/278 277/335/277 273/331/273
f 275/333/275 279/337/279 278/336/278 274/332/274
f 276/334/276 280/338/280 279/337/279 275/333/275
f 47/339/47 46/286/46 244/277/244
f 47/339/47 244/277/244 270/328/270
f 47/339/47 269/327/269 48/340/48
f 47/339/47 270/328/270 269/327/269
f 252/292/252 281/341/281 272/330/272 246/279/246
f 253/293/253 282/342/282 281/341/281 252/292/252
f 281/341/281 284/344/284 276/334/276 272/330/272
f 282/342/282 285/345/285 284/344/284 281/341/281
f 283/343/283 286/346/286 285/345/285 282/342/282
f 284/344/284 287/347/287 280/338/280 276/334/276
f 285/345/285 288/348/288 287/347/287 284/344/284
f 286/346/286 289/349/289 288/348/288 285/345/285
f 101/298/101 102/350/102 283/343/283
f 101/298/101 283/343/283 282/342/282
f 101/298/101 282/342/282 253/293/253
f 290/351/290 291/352/291 261/306/261 260/305/260
f 291/352/291 292/353/292 262/307/262 261/306/261
f 293/354/293 294/355/294 291/352/291 290/351/290
f 294/355/294 295/356/295 292/353/292 291/352/291
f 295/356/295 286/346/286 283/343/283 292/353/292
f 296/357/296 297/358/297 294/355/294 293/354/293
f 297/358/297 298/359/298 295/356/295 294/355/294
f 298/359/298 289/349/289 286/346/286 295/356/295
f 283/343/283 102/350/102 114/311/114
f 292/353/292 283/343/283 114/311/114
f 262/307/262 292/353/292 114/311/114
f 299/361/299 300/362/300 268/319/268 267/318/267
f 300/362/300 290/351/290 260/305/260 268/319/268
f 273/363/273 301/364/301 299/361/299 269/360/269
f 301/364/301 302/365/302 300/362/300 299/361/299
f 302/365/302 293/354/293 290/351/290 300/362/300
f 277/366/277 303/367/303 301/364/301 273/363/273
f 303/367/303 304/368/304 302/365/302 301/364/301
f 304/368/304 296/357/296 293/354/293 302/365/302
f 267/318/267 57/326/57 58/369/58
f 299/361/299 267/318/267 58/369/58
f 48/370/48 269/360/269 58/369/58
f 269/360/269 299/361/299 58/369/58
f 278/372/278 306/376/306 305/375/305 277/371/277
f 279/373/279 307/377/307 306/376/306 278/372/278
f 280/374/280 308/378/308 307/377/307 279/373/279
f 306/376/306 310/380/310 309/379/309 305/375/305
f 307/377/307 311/381/311 310/380/310 306/376/306
f 308/378/308 312/382/312 311/381/311 307/377/307
f 310/380/310 313/383/313 309/379/309
f 311/381/311 313/383/313 310/380/310
f 312/382/312 313/383/313 311/381/311
f 287/384/287 314/387/314 308/378/308 280/374/280
f 288/385/288 315/388/315 314/387/314 287/384/287
f 289/386/289 316/389/316 315/388/315 288/385/288
f 314/387/314 317/390/317 312/382/312 308/378/308
f 315/388/315 318/391/318 317/390/317 314/387/314
f 316/389/316 319/392/319 318/391/318 315/388/315
f 317/390/317 313/383/313 312/382/312
f 318/391/318 313/383/313 317/390/317
f 319/392/319 313/383/313 318/391/318
f 320/396/320 321/397/321 297/394/297 296/393/296
f 321/397/321 322/398/322 298/395/298 297/394/297
f 322/398/322 316/389/316 289/386/289 298/395/298
f 323/399/323 324/400/324 321/397/321 320/396/320
f 324/400/324 325/401/325 322/398/322 321/397/321
f 325/401/325 319/392/319 316/389/316 322/398/322
f 323/399/323 313/383/313 324/400/324
f 324/400/324 313/383/313 325/401/325
f 325/401/325 313/383/313 319/392/319
f 305/375/305 326/404/326 303/402/303 277/371/277
f 326/404/326 327/405/327 304/403/304 303/402/303
f 327/405/327 320/396/320 296/393/296 304/403/304
f 309/379/309 328/406/328 326/404/326 305/375/305
f 328/406/328 329/407/329 327/405/327 326/404/326
f 329/407/329 323/399/323 320/396/320 327/405/327
f 309/379/309 313/383/313 328/406/328
f 328/406/328 313/383/313 329/407/329
f 329/407/329 313/383/313 323/399/323
f 331/409/331 335/413/335 334/412/334 330/408/330
f 332/410/332 336/414/336 335/413/335 331/409/331
f 333/411/333 337/415/337 336/414/336 332/410/332
f 335/413/335 60/69/60 59/68/59 334/412/334
f 336/414/336 61/70/61 60/69/60 335/413/335
f 337/415/337 62/71/62 61/70/61 336/414/336
f 340/417/340 341/418/341 331/409/331
f 340/417/340 331/409/331 330/408/330
f 341/418/341 342/419/342 331/409/331
f 342/419/342 343/420/343 332/410/332
f 342/419/342 332/410/332 331/409/331
f 344/421/344 332/410/332 343/420/343
f 344/421/344 333/411/333 332/410/332
f 345/422/345 333/411/333 344/421/344
f 340/417/340 346/423/346 347/424/347 341/418/341
f 341/418/341 347/424/347 348/425/348 342/419/342
f 342/419/342 348/425/348 349/426/349 343/420/343
f 343/420/343 349/426/349 350/427/350 344/421/344
f 344/421/344 350/427/350 351/428/351 345/422/345
f 334/432/334 354/433/354 352/430/352 330/429/330
f 354/433/354 355/434/355 353/431/353 352/430/352
f 355/434/355 337/415/337 333/411/333 353/431/353
f 338/435/338 356/436/356 354/433/354 334/432/334
f 356/436/356 357/437/357 355/434/355 354/433/354
f 357/437/357 339/416/339 337/415/337 355/434/355
f 352/430/352 358/439/358 340/438/340
f 330/429/330 352/430/352 340/438/340
f 352/430/352 359/440/359 358/439/358
f 353/431/353 360/441/360 359/440/359
f 352/430/352 353/431/353 359/440/359
f 360/441/360 353/431/353 361/442/361
f 353/431/353 333/411/333 361/442/361
f 361/442/361 333/411/333 345/422/345
f 362/444/362 346/443/346 340/438/340 358/439/358
f 363/445/363 362/444/362 358/439/358 359/440/359
f 364/446/364 363/445/363 359/440/359 360/441/360
f 365/447/365 364/446/364 360/441/360 361/442/361
f 351/428/351 365/447/365 361/442/361 345/422/345
f 366/448/366 368/450/368 367/449/367
f 366/448/366 369/451/369 368/450/368
f 366/448/366 370/452/370 369/451/369
f 368/450/368 372/454/372 371/453/371 367/449/367
f 369/451/369 373/455/373 372/454/372 368/450/368
f 370/452/370 374/456/374 373/455/373 369/451/369
f 372/454/372 376/458/376 375/457/375 371/453/371
f 373/455/373 377/459/377 376/458/376 372/454/372
f 374/456/374 378/460/378 377/459/377 373/455/373
f 366/448/366 379/461/379 370/452/370
f 366/448/366 380/462/380 379/461/379
f 366/448/366 381/463/381 380/462/380
f 379/461/379 382/464/382 374/456/374 370/452/370
f 380/462/380 383/465/383 382/464/382 379/461/379
f 381/463/381 384/466/384 383/465/383 380/462/380
f 382/464/382 385/467/385 378/460/378 374/456/374
f 383/465/383 386/468/386 385/467/385 382/464/382
f 384/466/384 387/469/387 386/468/386 383/465/383
f 388/470/388 389/471/389 366/448/366
f 389/471/389 390/472/390 366/448/366
f 390/472/390 381/463/381 366/448/366
f 391/473/391 392/474/392 389/471/389 388/470/388
f 392/474/392 393/475/393 390/472/390 389/471/389
f 393/475/393 384/466/384 381/463/381 390/472/390
f 394/476/394 395/477/395 392/474/392 391/473/391
f 395/477/395 396/478/396 393/475/393 392/474/392
f 396/478/396 387/469/387 384/466/384 393/475/393
f 367/449/367 397/479/397 366/448/366
f 397/479/397 398/480/398 366/448/366
f 398/480/398 388/470/388 366/448/366
f 371/453/371 399/481/399 397/479/397 367/449/367
f 399/481/399 400/482/400 398/480/398 397/479/397
f 400/482/400 391/473/391 388/470/388 398/480/398
f 375/457/375 401/483/401 399/481/399 371/453/371
f 401/483/401 402/484/402 400/482/400 399/481/399
f 402/484/402 394/476/394 391/473/391 400/482/400
f 376/486/376 404/490/404 403/489/403 375/485/375
f 377/487/377 405/491/405 404/490/404 376/486/376
f 378/488/378 406/492/406 405/491/405 377/487/377
f 404/490/404 408/494/408 407/493/407 403/489/403
f 405/491/405 409/495/409 408/494/408 404/490/404
f 406/492/406 410/496/410 409/495/409 405/491/405
f 408/494/408 412/498/412 411/497/411 407/493/407
f 409/495/409 413/499/413 412/498/412 408/494/408
f 410/496/410 414/500/414 413/499/413 409/495/409
f 385/501/385 415/504/415 406/492/406 378/488/378
f 386/502/386 416/505/416 415/504/415 385/501/385
f 387/503/387 417/506/417 416/505/416 386/502/386
f 415/504/415 418/507/418 410/496/410 406/492/406
f 416/505/416 419/508/419 418/507/418 415/504/415
f 417/506/417 420/509/420 419/508/419 416/505/416
f 418/507/418 421/510/421 414/500/414 410/496/410
f 419/508/419 422/511/422 421/510/421 418/507/418
f 350/512/350 420/509/420 351/513/351
f 350/512/350 419/508/419 420/509/420
f 350/512/350 422/511/422 419/508/419
f 423/517/423 424/518/424 395/515/395 394/514/394
f 424/518/424 425/519/425 396/516/396 395/515/395
f 425/519/425 417/506/417 387/503/387 396/516/396
f 426/520/426 427/521/427 424/518/424 423/517/423
f 427/521/427 428/522/428 425/519/425 424/518/424
f 428/522/428 420/509/420 417/506/417 425/519/425
f 429/523/429 430/524/430 427/521/427 426/520/426
f 430/524/430 431/525/431 428/522/428 427/521/427
f 351/513/351 420/509/420 365/526/365
f 420/509/420 428/522/428 365/526/365
f 428/522/428 431/525/431 365/526/365
f 403/530/403 432/531/432 401/528/401 375/527/375
f 432/531/432 433/532/433 402/529/402 401/528/401
f 433/532/433 423/517/423 394/514/394 402/529/402
f 407/533/407 434/534/434 432/531/432 403/530/403
f 434/534/434 435/535/435 433/532/433 432/531/432
f 435/535/435 426/520/426 423/517/423 433/532/433
f 411/536/411 436/537/436 434/534/434 407/533/407
f 436/537/436 437/538/437 435/535/435 434/534/434
f 437/538/437 429/523/429 426/520/426 435/535/435
f 412/498/412 439/540/439 438/539/438 411/497/411
f 413/499/413 440/541/440 439/540/439 412/498/412
f 414/500/414 441/542/441 440/541/440 413/499/413
f 439/540/439 443/544/443 442/543/442 438/539/438
f 440/541/440 444/545/444 443/544/443 439/540/439
f 441/542/441 445/546/445 444/545/444 440/541/440
f 443/544/443 447/548/447 446/547/446 442/543/442
f 444/545/444 448/549/448 447/548/447 443/544/443
f 445/546/445 449/550/449 448/549/448 444/545/444
f 421/510/421 450/551/450 441/542/441 414/500/414
f 422/511/422 451/552/451 450/551/450 421/510/421
f 450/551/450 452/553/452 445/546/445 441/542/441
f 451/552/451 453/554/453 452/553/452 450/551/450
f 452/553/452 455/556/455 449/550/449 445/546/445
f 453/554/453 456/557/456 455/556/455 452/553/452
f 454/555/454 457/558/457 456/557/456 453/554/453
f 347/560/347 346/559/346 454/555/454
f 347/560/347 454/555/454 453/554/453
f 347/560/347 453/554/453 451/552/451
f 348/561/348 347/560/347 451/552/451
f 348/561/348 451/552/451 422/511/422
f 349/562/349 348/561/348 422/511/422
f 349/562/349 422/511/422 350/512/350
f 458/563/458 459/564/459 430/524/430 429/523/429
f 459/564/459 460/565/460 431/525/431 430/524/430
f 461/566/461 462/567/462 459/564/459 458/563/458
f 462/567/462 463/568/463 460/565/460 459/564/459
f 464/569/464 465/570/465 462/567/462 461/566/461
f 465/570/465 466/571/466 463/568/463 462/567/462
f 466/571/466 457/558/457 454/555/454 463/568/463
f 454/555/454 346/559/346 362/572/362
f 463/568/463 454/555/454 362/572/362
f 460/565/460 463/568/463 362/572/362
f 460/565/460 362/572/362 363/573/363
f 431/525/431 460/565/460 363/573/363
f 431/525/431 363/573/363 364/574/364
f 365/526/365 431/525/431 364/574/364
f 438/575/438 467/576/467 436/537/436 411/536/411
f 467/576/467 468/577/468 437/538/437 436/537/436
f 468/577/468 458/563/458 429/523/429 437/538/437
f 442/578/442 469/579/469 467/576/467 438/575/438
f 469/579/469 470/580/470 468/577/468 467/576/467
f 470/580/470 461/566/461 458/563/458 468/577/468
f 446/581/446 471/582/471 469/579/469 442/578/442
f 471/582/471 472/583/472 470/580/470 469/579/469
f 472/583/472 464/569/464 461/566/461 470/580/470
f 447/548/447 474/585/474 473/584/473 446/547/446
f 448/549/448 475/586/475 474/585/474 447/548/447
f 449/550/449 476/587/476 475/586/475 448/549/448
f 474/585/474 478/589/478 477/588/477 473/584/473
f 475/586/475 479/590/479 478/589/478 474/585/474
f 476/587/476 480/591/480 479/590/479 475/586/475
f 478/589/478 482/593/482 481/592/481 477/588/477
f 479/590/479 483/594/483 482/593/482 478/589/478
f 480/591/480 484/595/484 483/594/483 479/590/479
f 455/556/455 485/596/485 476/587/476 449/550/449
f 456/557/456 486/597/486 485/596/485 455/556/455
f 457/558/457 487/598/487 486/597/486 456/557/456
f 485/596/485 488/599/488 480/591/480 476/587/476
f 486/597/486 489/600/489 488/599/488 485/596/485
f 487/598/487 490/601/490 489/600/489 486/597/486
f 488/599/488 491/602/491 484/595/484 480/591/480
f 489/600/489 492/603/492 491/602/491 488/599/488
f 490/601/490 493/604/493 492/603/492 489/600/489
f 494/605/494 495/606/495 465/570/465 464/569/464
f 495/606/495 496/607/496 466/571/466 465/570/465
f 496/607/496 487/598/487 457/558/457 466/571/466
f 497/608/497 498/609/498 495/606/495 494/605/494
f 498/609/498 499/610/499 496/607/496 495/606/495
f 499/610/499 490/601/490 487/598/487 496/607/496
f 500/611/500 501/612/501 498/609/498 497/608/497
f 501/612/501 502/613/502 499/610/499 498/609/498
f 502/613/502 493/604/493 490/601/490 499/610/499
f 473/614/473 503/615/503 471/582/471 446/581/446
f 503/615/503 504/616/504 472/583/472 471/582/471
f 504/616/504 494/605/494 464/569/464 472/583/472
f 477/617/477 505/618/505 503/615/503 473/614/473
f 505/618/505 506/619/506 504/616/504 503/615/503
f 506/619/506 497/608/497 494/605/494 504/616/504
f 481/620/481 507/621/507 505/618/505 477/617/477
f 507/621/507 508/622/508 506/619/506 505/618/505
f 508/622/508 500/611/500 497/608/497 506/619/506
f 482/593/482 510/624/510 509/623/509 481/592/481
f 483/594/483 511/625/511 510/624/510 482/593/482
f 484/595/484 512/626/512 511/625/511 483/594/483
f 510/624/510 514/628/514 513/627/513 509/623/509
f 511/625/511 515/629/515 514/628/514 510/624/510
f 512/626/512 516/630/516 515/629/515 511/625/511
f 514/628/514 189/218/518 188/217/517 513/627/513
f 515/629/515 190/219/519 189/218/518 514/628/514
f 516/630/516 191/220/520 190/219/519 515/629/515
f 491/602/491 517/631/521 512/626/512 484/595/484
f 492/603/492 518/632/522 517/631/521 491/602/491
f 493/604/493 519/633/523 518/632/522 492/603/492
f 517/631/521 520/634/524 516/630/516 512/626/512
f 518/632/522 521/635/525 520/634/524 517/631/521
f 519/633/523 522/636/526 521/635/525 518/632/522
f 520/634/524 204/233/527 191/220/520 516/630/516
f 521/635/525 205/234/528 204/233/527 520/634/524
f 522/636/526 206/235/529 205/234/528 521/635/525
f 523/637/530 524/638/531 501/612/501 500/611/500
f 524/638/531 525/639/532 502/613/502 501/612/501
f 525/639/532 519/633/523 493/604/493 502/613/502
f 526/640/533 527/641/534 524/638/531 523/637/530
f 527/641/534 528/642/535 525/639/532 524/638/531
f 528/642/535 522/636/526 519/633/523 525/639/532
f 216/245/536 217/246/537 527/641/534 526/640/533
f 217/246/537 218/247/538 528/642/535 527/641/534
f 218/247/538 206/235/529 522/636/526 528/642/535
f 509/643/509 529/644/539 507/621/507 481/620/481
f 529/644/539 530/645/540 508/622/508 507/621/507
f 530/645/540 523/637/530 500/611/500 508/622/508
f 513/646/513 531/647/541 529/644/539 509/643/509
f 531/647/541 532/648/542 530/645/540 529/644/539
f 532/648/542 526/640/533 523/637/530 530/645/540
f 188/257/517 228/258/543 531/647/541 513/646/513
f 228/258/543 229/259/544 532/648/542 531/647/541
f 229/259/544 216/245/536 526/640/533 532/648/542
f 161/650/546 534/654/550 533/653/549 160/649/545
f 162/651/547 535/655/551 534/654/550 161/650/546
f 163/652/548 536/656/552 535/655/551 162/651/547
f 534/654/550 538/658/554 537/657/553 533/653/549
f 535/655/551 539/659/555 538/658/554 534/654/550
f 536/656/552 540/660/556 539/659/555 535/655/551
f 538/658/554 542/662/558 541/661/557 537/657/553
f 539/659/555 543/663/559 542/662/558 538/658/554
f 540/660/556 544/664/560 543/663/559 539/659/555
f 170/665/561 545/668/564 536/656/552 163/652/548
f 171/666/562 546/669/565 545/668/564 170/665/561
f 172/667/563 547/670/566 546/669/565 171/666/562
f 545/668/564 548/671/567 540/660/556 536/656/552
f 546/669/565 549/672/568 548/671/567 545/668/564
f 547/670/566 550/673/569 549/672/568 546/669/565
f 548/671/567 551/674/570 544/664/560 540/660/556
f 549/672/568 552/675/571 551/674/570 548/671/567
f 550/673/569 553/676/572 552/675/571 549/672/568
f 554/680/576 555/681/577 180/678/574 179/677/573
f 555/681/577 556/682/578 181/679/575 180/678/574
f 556/682/578 547/670/566 172/667/563 181/679/575
f 557/683/579 558/684/580 555/681/577 554/680/576
f 558/684/580 559/685/581 556/682/578 555/681/577
f 559/685/581 550/673/569 547/670/566 556/682/578
f 560/686/582 561/687/583 558/684/580 557/683/579
f 561/687/583 562/688/584 559/685/581 558/684/580
f 562/688/584 553/676/572 550/673/569 559/685/581
f 533/653/549 563/691/587 186/689/585 160/649/545
f 563/691/587 564/692/588 187/690/586 186/689/585
f 564/692/588 554/680/576 179/677/573 187/690/586
f 537/657/553 565/693/589 563/691/587 533/653/549
f 565/693/589 566/694/590 564/692/588 563/691/587
f 566/694/590 557/683/579 554/680/576 564/692/588
f 541/661/557 567/695/591 565/693/589 537/657/553
f 567/695/591 568/696/592 566/694/590 565/693/589
f 568/696/592 560/686/582 557/683/579 566/694/590
f 542/662/558 570/698/594 569/697/593 541/661/557
f 543/663/559 571/699/595 570/698/594 542/662/558
f 544/664/560 572/700/596 571/699/595 543/663/559
f 570/698/594 574/702/598 573/701/597 569/697/593
f 571/699/595 575/703/599 574/702/598 570/698/594
f 572/700/596 576/704/600 575/703/599 571/699/595
f 574/702/598 578/706/602 577/705/601 573/701/597
f 575/703/599 579/707/603 578/706/602 574/702/598
f 576/704/600 580/708/604 579/707/603 575/703/599
f 551/674/570 581/709/605 572/700/596 544/664/560
f 552/675/571 582/710/606 581/709/605 551/674/570
f 553/676/572 583/711/607 582/710/606 552/675/571
f 581/709/605 584/712/608 576/704/600 572/700/596
f 582/710/606 585/713/609 584/712/608 581/709/605
f 583/711/607 586/714/610 585/713/609 582/710/606
f 584/712/608 587/715/611 580/708/604 576/704/600
f 585/713/609 588/716/612 587/715/611 584/712/608
f 586/714/610 589/717/613 588/716/612 585/713/609
f 590/718/614 591/719/615 561/687/583 560/686/582
f 591/719/615 592/720/616 562/688/584 561/687/583
f 592/720/616 583/711/607 553/676/572 562/688/584
f 593/721/617 594/722/618 591/719/615 590/718/614
f 594/722/618 595/723/619 592/720/616 591/719/615
f 595/723/619 586/714/610 583/711/607 592/720/616
f 596/724/620 597/725/621 594/722/618 593/721/617
f 597/725/621 598/726/622 595/723/619 594/722/618
f 598/726/622 589/717/613 586/714/610 595/723/619
f 569/697/593 599/727/623 567/695/591 541/661/557
f 599/727/623 600/728/624 568/696/592 567/695/591
f 600/728/624 590/718/614 560/686/582 568/696/592
f 573/701/597 601/729/625 599/727/623 569/697/593
f 601/729/625 602/730/626 600/728/624 599/727/623
f 602/730/626 593/721/617 590/718/614 600/728/624
f 577/705/601 603/731/627 601/729/625 573/701/597
f 603/731/627 604/732/628 602/730/626 601/729/625
f 604/732/628 596/724/620 593/721/617 602/730/626
f 578/706/602 606/734/630 605/733/629 577/705/601
f 579/707/603 607/735/631 606/734/630 578/706/602
f 580/708/604 608/736/632 607/735/631 579/707/603
f 606/734/630 610/738/634 609/737/633 605/733/629
f 607/735/631 611/739/635 610/738/634 606/734/630
f 608/736/632 612/740/636 611/739/635 607/735/631
f 610/738/634 613/741/637 609/737/633
f 611/739/635 613/741/637 610/738/634
f 612/740/636 613/741/637 611/739/635
f 587/715/611 614/742/638 608/736/632 580/708/604
f 588/716/612 615/743/639 614/742/638 587/715/611
f 589/717/613 616/744/640 615/743/639 588/716/612
f 614/742/638 617/745/641 612/740/636 608/736/632
f 615/743/639 618/746/642 617/745/641 614/742/638
f 616/744/640 619/747/643 618/746/642 615/743/639
f 617/745/641 613/741/637 612/740/636
f 618/746/642 613/741/637 617/745/641
f 619/747/643 613/741/637 618/746/642
f 620/748/644 621/749/645 597/725/621 596/724/620
f 621/749/645 622/750/646 598/726/622 597/725/621
f 622/750/646 616/744/640 589/717/613 598/726/622
f 623/751/647 624/752/648 621/749/645 620/748/644
f 624/752/648 625/753/649 622/750/646 621/749/645
f 625/753/649 619/747/643 616/744/640 622/750/646
f 623/751/647 613/741/637 624/752/648
f 624/752/648 613/741/637 625/753/649
f 625/753/649 613/741/637 619/747/643
f 605/733/629 626/754/650 603/731/627 577/705/601
f 626/754/650 627/755/651 604/732/628 603/731/627
f 627/755/651 620/748/644 596/724/620 604/732/628
f 609/737/633 628/756/652 626/754/650 605/733/629
f 628/756/652 629/757/653 627/755/651 626/754/650
f 629/757/653 623/751/647 620/748/644 627/755/651
f 609/737/633 613/741/637 628/756/652
f 628/756/652 613/741/637 629/757/653
f 629/757/653 613/741/637 623/751/647
